<?xml version="1.0" encoding="UTF-8" standalone="no"?>
<!DOCTYPE svg  PUBLIC '-//W3C//DTD SVG 1.1//EN'  'http://www.w3.org/Graphics/SVG/1.1/DTD/svg11.dtd'>
<svg xmlns="http://www.w3.org/2000/svg">
<defs>
<font id="Ebisu-Light" horiz-adv-x="581">
<font-face underline-position="-50" font-weight="300" descent="-200" panose-1="0 0 0 0 0 0 0 0 0 0" units-per-em="1000" unicode-range="U+0020-2212" bbox="-38 -247 1224 943" x-height="499" underline-thickness="50" font-family="Ebisu" ascent="800" cap-height="749"/>
<missing-glyph horiz-adv-x="1000"/>
<glyph glyph-name=".notdef" horiz-adv-x="1000"/>
<glyph glyph-name=".null" horiz-adv-x="0"/>
<glyph glyph-name="nonmarkingreturn" horiz-adv-x="1000"/>
<glyph glyph-name="space" horiz-adv-x="290" unicode=" "/>
<glyph glyph-name="space" horiz-adv-x="290" unicode=" "/>
<glyph glyph-name="exclam" horiz-adv-x="166" unicode="!" d="M38 41q0 17 13 31t32 14q17 0 31 -14t14 -31q0 -19 -14 -32t-31 -13q-19 0 -32 13t-13 32zM38 132v618h90v-618h-90z"/>
<glyph glyph-name="quotedbl" horiz-adv-x="290" unicode='&quot;' d="M180 458v292h70v-292h-70zM40 458v292h70v-292h-70z"/>
<glyph glyph-name="numbersign" horiz-adv-x="643" unicode="#" d="M249 455l-26 -191h170l27 191h-171zM356 0l31 225h-172l-29 -225h-39l29 225h-143v39h150l26 191h-144v39h151l28 205h38l-26 -205h170l28 205h36l-3 -25q-2 -19 -7.5 -60.5t-14.5 -119.5h144v-39h-150l-27 -191h144v-39h-150l-29 -225h-41z"/>
<glyph glyph-name="dollar" horiz-adv-x="464" unicode="$" d="M181 -92v88q-31 6 -57 18.5t-45 30t-31 38.5t-16 43v5q0 18 13.5 31.5t31.5 13.5q15 0 26.5 -10.5t17.5 -24.5q13 -29 42.5 -44.5t62.5 -15.5q25 0 47.5 9.5t39 26t26 39t9.5 47.5q0 34 -17.5 60t-44.5 43q-18 12 -38 20.5t-40.5 16t-39.5 15.5t-35 18q-52 32 -78 75 t-26 103q0 35 11.5 67t32 58t48.5 44.5t60 27.5v87h90v-84q44 -8 80 -34t58 -63q6 -11 6 -22q0 -18 -13.5 -31.5t-31.5 -13.5q-14 0 -24.5 7.5t-16.5 18.5q-13 24 -39.5 38.5t-55.5 14.5q-23 0 -43 -9t-35 -24t-23.5 -35t-8.5 -42q0 -31 16.5 -55t39.5 -41q13 -10 31.5 -20 t39 -19.5t40.5 -19t36 -18.5q53 -30 80 -77t27 -107q0 -37 -12.5 -70.5t-34.5 -60.5t-52 -46t-64 -27v-90h-90z"/>
<glyph glyph-name="percent" horiz-adv-x="870" unicode="%" d="M204 19l402 739l46 -30l-401 -735zM31 570q0 37 14 70q15 34 39 58t57 38t70 14t70 -14t57 -38t39 -58q14 -33 14 -70t-14 -70q-15 -34 -39 -58t-57 -38t-70 -14t-70 14t-57 38t-39 58q-14 33 -14 70zM102 570q0 -23 8 -43q8 -21 24 -35q14 -14 34 -22t43 -9q23 1 43 9 t34 22t24 35q8 20 8 43t-8 43q-8 21 -24 35q-14 14 -34 22t-43 9q-23 -1 -43 -9t-34 -22t-24 -35q-8 -20 -8 -43zM478 180q0 37 14 70q14 34 38 58t58 38q33 14 70 14t70 -14q34 -14 58 -38t38 -58q14 -33 14 -70t-14 -70q-14 -34 -38 -58t-58 -38q-33 -14 -70 -14t-70 14 q-34 14 -58 38t-38 58q-14 33 -14 70zM549 180q1 -23 9 -43q8 -21 22 -35t35 -22q20 -8 43 -9q23 1 43 9q21 8 35 22t22 35q8 20 9 43q-1 23 -9 43q-8 21 -22 35t-35 22q-20 8 -43 9q-23 -1 -43 -9q-21 -8 -35 -22t-22 -35q-8 -20 -9 -43z"/>
<glyph glyph-name="ampersand" horiz-adv-x="708" unicode="&amp;" d="M253 669q-32 0 -54.5 -18t-22.5 -50q0 -9 2 -20t10.5 -25t26 -32t48.5 -41q2 0 12 6.5t21.5 20t20.5 35t9 51.5t-22 51.5t-51 21.5zM122 207q0 -26 9.5 -48.5t26.5 -40t40 -27.5t50 -10q20 0 41 13.5t39.5 32t34 39t24.5 35.5l8 17q1 1 1 3l-142 143q-24 -14 -47.5 -30.5 t-42 -36t-30.5 -42t-12 -48.5zM611 1l-148 152q-25 -51 -51 -82.5t-53 -49t-54.5 -23.5t-55.5 -6q-44 0 -83.5 16t-69 44.5t-47 67t-17.5 83.5q0 60 32.5 112t89.5 91l35 24q-24 23 -38.5 38t-25.5 27q-22 22 -29.5 49t-7.5 54q0 34 12 63t34 50.5t53 34t69 12.5 q31 0 60 -13t51 -34.5t35 -50.5t13 -62q0 -52 -18.5 -95.5t-68.5 -85.5l112 -114l77 145l79 -42l-90 -170l169 -172z"/>
<glyph glyph-name="quotesingle" horiz-adv-x="149" unicode="&apos;" d="M39 460v290h70v-290h-70z"/>
<glyph glyph-name="parenleft" horiz-adv-x="251" unicode="(" d="M155 -93q-57 45 -86.5 107.5t-29.5 140.5v392q0 157 116 247l57 -58q-28 -27 -44.5 -52t-25.5 -51.5t-11.5 -56.5t-2.5 -67v-317q0 -36 2.5 -66t11.5 -56.5t25.5 -51.5t44.5 -52z"/>
<glyph glyph-name="parenright" horiz-adv-x="247" unicode=")" d="M37 -34q29 27 45 52q16 26 25 52t11 56t3 66v317q-1 37 -3 67t-11 56t-25 52q-16 25 -45 52l57 58q116 -90 116 -247v-392q0 -156 -116 -248z"/>
<glyph glyph-name="asterisk" horiz-adv-x="435" unicode="*" d="M114 694l82 -111l-19 136h80l-19 -136l82 111l59 -60l-111 -81l136 18v-79l-136 19l111 -82l-59 -58l-82 111l19 -136h-80l19 135l-82 -111l-59 59l111 82l-136 -19v79l137 -18l-112 83z"/>
<glyph glyph-name="plus" horiz-adv-x="544" unicode="+" d="M241 4v219h-220v62h220v215h62v-215h220v-62h-220v-219h-62z"/>
<glyph glyph-name="comma" horiz-adv-x="135" unicode="," d="M23 112l81 6l8 -196h-31z"/>
<glyph glyph-name="hyphen" horiz-adv-x="395" unicode="-" d="M356 254h-318v66h318v-66z"/>
<glyph glyph-name="period" horiz-adv-x="153" unicode="." d="M77 -4q-18 0 -30.5 12.5t-12.5 30.5q0 17 13 29t30 12q16 0 29 -12.5t13 -28.5q0 -17 -12.5 -30t-29.5 -13z"/>
<glyph glyph-name="slash" horiz-adv-x="308" unicode="/" d="M20 15l215 743l53 -16l-216 -744z"/>
<glyph glyph-name="zero" horiz-adv-x="600" unicode="0" d="M300 665q-33 0 -61.5 -13t-49.5 -34.5t-33 -49.5t-12 -57v-273q0 -30 12.5 -58t33.5 -49.5t49.5 -34.5t60.5 -13q31 0 59 12.5t49 33.5t33 49t12 60v273q0 31 -12 59t-33 49t-49 33.5t-59 12.5zM300 -8q-47 0 -91 18.5t-78 51t-54.5 77t-20.5 97.5v277q0 49 19.5 93 t53 77.5t77.5 53t94 19.5q43 0 86 -17t78 -48.5t57 -76.5t22 -101v-277q0 -49 -19.5 -93.5t-53 -78t-77.5 -53t-93 -19.5z"/>
<glyph glyph-name="one" horiz-adv-x="600" unicode="1" d="M310 0v657q0 6 -1.5 9.5t-9.5 3.5h-101v80h203v-750h-91z"/>
<glyph glyph-name="two" horiz-adv-x="600" unicode="2" d="M528 0h-457v107q12 13 43.5 41.5t72 65.5t84 79.5t79.5 84.5t59.5 80.5t23.5 67.5t-11 54.5t-30 44t-44.5 29.5t-53.5 11q-46 0 -82 -26.5t-51 -69.5l-85 28q11 34 33 63t50.5 50t63 32.5t71.5 11.5q48 0 89.5 -18t72.5 -49.5t49 -73t18 -87.5q0 -48 -29.5 -100 t-74.5 -104t-98 -102t-100 -92l-24 -22q-13 -10 -13 -13t20 -3h324v-90z"/>
<glyph glyph-name="three" horiz-adv-x="600" unicode="3" d="M156 194q6 -24 19 -45t31.5 -36.5t42 -24t49.5 -8.5q29 0 55 11.5t46 31t32 46.5t12 58q0 30 -10 58.5t-28 52t-43 38.5t-55 17h-6.5t-6.5 1l-4 77q11 8 23.5 16.5t23.5 21.5t18 31.5t7 45.5q0 14 -3.5 29t-11.5 27t-21 19.5t-31 7.5q-17 0 -29.5 -3.5t-22 -10t-18.5 -16 t-19 -22.5l-76 46q5 11 13 20.5t16 17.5q14 14 28 24.5t30 18t35.5 11t45.5 3.5q27 0 54 -11t49 -31.5t36 -49t14 -64.5q0 -34 -8.5 -71t-42.5 -83q73 -38 102.5 -96.5t29.5 -124.5q0 -48 -18.5 -90.5t-50 -74.5t-74 -51t-91.5 -19q-41 0 -79.5 14t-70 39t-53 59.5 t-28.5 74.5z"/>
<glyph glyph-name="four" horiz-adv-x="600" unicode="4" d="M373 220q7 0 7 8v339q0 4 -2 4t-3 -3l-222 -342q-1 -1 -1 -3q0 -3 4 -3h217zM547 130h-72q-5 0 -5 -6v-124h-90v124q0 6 -6 6h-322v84l344 536h74v-524q0 -6 6 -6h71v-90z"/>
<glyph glyph-name="five" horiz-adv-x="600" unicode="5" d="M286 -8q-36 0 -70 10t-63.5 28t-53 43.5t-38.5 57.5l79 36q19 -40 58 -63t88 -23q34 0 64 13t52 35t34.5 52t12.5 64t-12.5 63.5t-34.5 51.5t-52 35t-64 13h-6q-32 0 -57.5 -3.5t-42.5 -7.5q-20 -4 -36 -10l-56 65l62 298h341v-88h-260q-7 0 -10 -1t-5 -7 q-8 -40 -13.5 -71t-10.5 -54q-5 -26 -9 -46q15 3 32 7q14 3 32.5 5.5t38.5 2.5q52 0 98.5 -20t80.5 -54.5t54 -80.5t20 -98q0 -53 -20 -99t-54 -80t-80.5 -54t-98.5 -20z"/>
<glyph glyph-name="six" horiz-adv-x="600" unicode="6" d="M300 505q49 0 95.5 -17.5t82 -50.5t57 -80.5t21.5 -108.5q0 -54 -20 -101t-54.5 -81.5t-80.5 -54t-99 -19.5q-56 0 -103.5 19.5t-82 54t-54 81.5t-19.5 101q0 67 34 129l242 380l78 -47l-133 -208q16 3 36 3zM300 415q-36 0 -66.5 -12.5t-53 -35t-35 -53t-12.5 -66.5 t12.5 -66t35 -52.5t53 -35t66.5 -12.5q35 0 65.5 12.5t53 35t35 52.5t12.5 66q0 35 -13 65.5t-35.5 53t-53 35.5t-64.5 13z"/>
<glyph glyph-name="seven" horiz-adv-x="600" unicode="7" d="M131 32l275 624q1 2 1 4q0 3 -5 3h-310v87h416v-87l-294 -667z"/>
<glyph glyph-name="eight" horiz-adv-x="600" unicode="8" d="M300 669q-22 0 -41.5 -8.5t-34.5 -22.5q-15 -15 -23.5 -34.5t-8.5 -41.5q0 -21 8.5 -40.5t22.5 -36.5q32 -32 77 -32q44 0 76 32q32 34 32 77q0 22 -8.5 41.5t-23.5 34t-34.5 23t-41.5 8.5zM300 373q-29 0 -56 -10.5t-47 -30.5q-21 -21 -32.5 -48.5t-11.5 -56.5 q0 -30 11.5 -57t31.5 -47t47 -31.5t57 -11.5q29 0 56 12t48 33q41 41 41 102q0 29 -10.5 56.5t-30.5 48.5q-21 20 -48 30.5t-56 10.5zM300 -8q-48 0 -90 18t-77 50q-33 35 -50.5 77t-17.5 90q0 49 27 97q11 20 26.5 39t35.5 35l27 22l-23 24q-22 24 -38 53t-16 65 q0 39 14 74.5t43 64.5q59 57 139 57q38 0 74.5 -14.5t63.5 -42.5q29 -29 43.5 -64.5t14.5 -74.5q0 -34 -15 -61.5t-41 -56.5l-22 -24l26 -22q10 -8 25.5 -23.5t29.5 -37.5t24.5 -49.5t10.5 -60.5q0 -48 -17 -90t-52 -76q-33 -33 -75.5 -51t-89.5 -18z"/>
<glyph glyph-name="nine" horiz-adv-x="600" unicode="9" d="M299 241q-50 0 -96 17.5t-81.5 50.5t-57 80.5t-21.5 108.5q0 54 20 100.5t54.5 81t80.5 54.5t99 20q56 0 103.5 -20t82 -54.5t54 -81t19.5 -100.5q0 -67 -34 -129l-240 -378l-78 47l131 206q-17 -3 -36 -3zM299 331q36 0 66.5 12.5t53 35t35 53t12.5 66.5t-12.5 66 t-35 52.5t-53 35t-66.5 12.5q-35 0 -65.5 -12.5t-53 -35t-35 -52.5t-12.5 -66q0 -35 13 -65.5t35.5 -53t52.5 -35.5t65 -13z"/>
<glyph glyph-name="colon" horiz-adv-x="156" unicode=":" d="M78 365q-18 0 -30.5 12.5t-12.5 30.5q0 17 13 29t30 12q16 0 29 -12.5t13 -28.5q0 -17 -12.5 -30t-29.5 -13zM78 -4q-18 0 -30.5 12.5t-12.5 30.5q0 17 13 29t30 12q16 0 29 -12.5t13 -28.5q0 -17 -12.5 -30t-29.5 -13z"/>
<glyph glyph-name="semicolon" horiz-adv-x="144" unicode=";" d="M24 112l81 6l8 -196h-31zM78 365q-18 0 -30.5 12.5t-12.5 30.5q0 17 13 29t30 12q16 0 29 -12.5t13 -28.5q0 -17 -12.5 -30t-29.5 -13z"/>
<glyph glyph-name="less" horiz-adv-x="597" unicode="&lt;" d="M552 11l-527 210v66l527 208l19 -49l-20 -8q-20 -8 -52 -23q-33 -13 -73 -31t-83 -36q-100 -43 -227 -98l455 -190z"/>
<glyph glyph-name="equal" horiz-adv-x="535" unicode="=" d="M495 148h-456v66h456v-66zM495 284h-456v66h456v-66z"/>
<glyph glyph-name="greater" horiz-adv-x="630" unicode="&gt;" d="M42 60l455 190q-127 55 -227 98q-43 18 -84 36t-73 31q-31 15 -51 23l-20 8l19 49l527 -208v-66l-527 -210z"/>
<glyph glyph-name="question" horiz-adv-x="418" unicode="?" d="M153 41q0 19 13 32t32 13t32 -13t13 -32t-13 -32t-32 -13t-32 13t-13 32zM31 661q9 15 25 31t39 30q21 14 49 23t59 9q36 0 69 -11q32 -11 58 -33t41 -56t15 -78q0 -41 -14 -72t-35 -56t-45 -46t-45 -42t-35 -44t-14 -51q0 -15 4 -31t9 -31q5 -16 13 -31l-79 -32 q-11 12 -19 28q-8 14 -14 32t-5 40q0 50 14 86t35 64t45 48q24 22 45 42t35 44q14 23 14 53q0 27 -8 44t-21 27q-14 10 -30 12q-16 4 -33 4q-21 0 -37 -7t-28 -17t-22 -21t-19 -20z"/>
<glyph glyph-name="at" horiz-adv-x="868" unicode="@" d="M446 520q-30 0 -56.5 -16t-46 -43.5t-31 -65t-11.5 -79.5q0 -49 21 -76q21 -29 64 -29q41 0 77 33q17 16 29 37.5t18 46.5l19 73q4 16 4 32q0 20 -6 34t-13 22q-25 31 -68 31zM441 -8q-79 0 -153 23q-75 25 -130 69q-62 49 -93.5 116.5t-31.5 150.5q0 85 33.5 160 t96.5 132q63 56 141 85q41 15 83.5 23t87.5 8q66 0 131 -20q65 -19 115 -57q113 -86 113 -226q0 -69 -27.5 -128t-78.5 -104q-30 -23 -64.5 -35.5t-67.5 -12.5q-23 0 -35.5 3.5t-23.5 11.5q-10 8 -18.5 24.5t-8.5 46.5q-13 -17 -23.5 -28.5t-18.5 -19t-15.5 -12t-14.5 -8.5 q-32 -18 -71 -18q-63 0 -96.5 36t-33.5 104q0 50 15 94t44 77q28 32 64 49.5t75 17.5t64.5 -13.5t45.5 -56.5l31 62l51 -6l-62 -246q-4 -15 -4 -29q0 -45 49 -45q27 0 53.5 14t48.5 40q68 68 68 182q0 57 -22 103t-62.5 79t-98 50.5t-127.5 17.5q-76 0 -146 -27 q-70 -28 -121 -76q-56 -51 -85.5 -117t-30.5 -140q0 -58 21 -110q21 -50 60 -90q48 -48 117 -75q70 -27 150 -27q169 0 272 69l18 -24q-62 -47 -131 -71q-73 -26 -153 -26z"/>
<glyph glyph-name="A" horiz-adv-x="617" unicode="A" d="M306 584l-108 -318q-1 -1 -1 -3q0 -5 5 -5h211q7 0 7 5q0 1 -0.5 1.5t-0.5 1.5l-109 318q0 3 -2 3q-1 0 -2 -3zM340 750l265 -750h-96l-56 161q-2 7 -9 7h-272q-9 0 -10 -7l-57 -161h-94l263 750h66z"/>
<glyph glyph-name="B" horiz-adv-x="519" unicode="B" d="M130 429q0 -7 6 -7h76q39 0 63.5 13t38.5 31.5t19 39.5t5 37t-5 36.5t-19 38.5t-38.5 30.5t-63.5 12.5h-73q-9 0 -9 -9v-223zM130 98q0 -9 9 -9h124q39 0 63.5 13t38.5 31.5t19 39t5 36.5t-5 37t-19 40t-38.5 32.5t-63.5 13.5h-127q-6 -2 -6 -6v-228zM40 750h170 q48 0 88 -14.5t69 -41t45 -64t16 -84.5q0 -32 -5.5 -55t-13.5 -40t-18.5 -29.5t-20.5 -24.5q54 -28 81.5 -78t27.5 -111q0 -48 -16 -86.5t-45 -65.5t-69 -41.5t-88 -14.5h-221v750z"/>
<glyph glyph-name="C" horiz-adv-x="695" unicode="C" d="M420 -8q-79 0 -148.5 30.5t-122 82.5t-83 121.5t-30.5 147.5q0 79 30.5 148.5t82.5 122t122 83t149 30.5q54 0 95.5 -10.5t71.5 -24.5t48 -27.5t24 -18.5l-54 -74q-39 32 -87 48.5t-100 16.5q-62 0 -115.5 -23.5t-92.5 -63.5t-61.5 -93.5t-22.5 -113.5q0 -56 24.5 -108.5 t65.5 -93.5t94 -65.5t110 -24.5q51 0 98.5 16.5t86.5 48.5l53 -75q-6 -5 -23.5 -18t-47.5 -27t-71.5 -24.5t-95.5 -10.5z"/>
<glyph glyph-name="D" horiz-adv-x="683" unicode="D" d="M136 660q-6 0 -6 -4v-560q0 -6 6 -6h134q58 0 109.5 23t90 62t61 90.5t22.5 109.5t-22.5 110t-61.5 91t-91 61.5t-110 22.5h-132zM40 0v750h230q78 0 146 -29.5t118.5 -80.5t79.5 -119t29 -146t-29 -146.5t-79.5 -119t-118.5 -80t-146 -29.5h-230z"/>
<glyph glyph-name="E" horiz-adv-x="450" unicode="E" d="M409 0h-368v750h368v-90h-272q-6 0 -6 -4v-230q0 -4 6 -4h272v-90h-272q-6 0 -6 -5v-231q0 -6 6 -6h272v-90z"/>
<glyph glyph-name="F" horiz-adv-x="450" unicode="F" d="M410 332h-274q-6 0 -6 -6v-326h-90v750h370v-90h-274q-6 0 -6 -6v-226q0 -6 6 -6h274v-90z"/>
<glyph glyph-name="G" horiz-adv-x="784" unicode="G" d="M741 310q-5 -69 -28 -127.5t-63 -101t-96.5 -66t-128.5 -23.5q-80 0 -149.5 30t-121.5 82t-82 121.5t-30 149.5q0 79 30 149t82 122t121.5 82t149.5 30q72 0 135.5 -24.5t114.5 -68.5l-63 -64q-36 32 -84.5 49.5t-102.5 17.5q-60 0 -113.5 -23t-93.5 -63t-63 -93 t-23 -114q0 -60 23 -113.5t63 -93.5t93.5 -63t113.5 -23q48 0 85.5 15t64.5 41.5t43.5 62.5t22.5 77h-263v90h363v-58z"/>
<glyph glyph-name="H" horiz-adv-x="572" unicode="H" d="M442 0v324q0 6 -6 6h-301q-5 0 -5.5 -2.5t-0.5 -3.5v-324h-90v750h90v-324q0 -6 6 -6h301q6 0 6 6v324h90v-750h-90z"/>
<glyph glyph-name="I" horiz-adv-x="169" unicode="I" d="M39 0v749h90v-749h-90z"/>
<glyph glyph-name="J" horiz-adv-x="404" unicode="J" d="M106 144q11 -26 34.5 -44t54.5 -18q19 0 36.5 7.5t30.5 20t20.5 30t7.5 37.5v575h90v-575q0 -38 -14.5 -72t-39.5 -59t-59 -39.5t-72 -14.5q-59 0 -104.5 33t-67.5 84z"/>
<glyph glyph-name="K" horiz-adv-x="472" unicode="K" d="M30 0v750h90v-330q0 -2 2 -2l2 3q2 3 9.5 13.5t21 32t37.5 58.5t59 92t85 133h103q-58 -91 -98.5 -153.5t-67 -103.5t-42 -64.5t-23 -35t-9.5 -15t-2 -5.5l244 -373h-108l-209 327q-2 2 -3 2l-1 -11v-45.5v-99.5v-173h-90z"/>
<glyph glyph-name="L" horiz-adv-x="449" unicode="L" d="M409 0h-370v750h90v-654q0 -6 6 -6h274v-90z"/>
<glyph glyph-name="M" horiz-adv-x="742" unicode="M" d="M39 0v749h130l200 -586q1 -3 2 -3q2 0 2 3l199 586h130v-748h-90v606l-9 -25q-9 -26 -23.5 -68.5t-32.5 -96.5t-37.5 -111t-38 -111.5t-33 -97.5t-23.5 -69.5t-9 -27.5h-69l-208 610v-610h-90z"/>
<glyph glyph-name="N" horiz-adv-x="648" unicode="N" d="M39 0v749h111l364 -608q1 -3 3 -3q1 0 1 3v609h90v-750h-112l-362 605q-2 3 -3 3q-2 0 -2 -4v-604h-90z"/>
<glyph glyph-name="O" horiz-adv-x="833" unicode="O" d="M123 375q0 -60 23 -113.5t63 -93.5t93.5 -63t113.5 -23q61 0 114 23t93 63t63 93.5t23 113.5q0 61 -23 114t-63 93t-93 63t-114 23q-60 0 -113.5 -23t-93.5 -63t-63 -93t-23 -114zM33 375q0 79 30 149t82 122t121.5 82t149.5 30q79 0 149 -30t122 -82t82 -122t30 -149 q0 -80 -30 -149.5t-82 -121.5t-122 -82t-149 -30q-80 0 -149.5 30t-121.5 82t-82 121.5t-30 149.5z"/>
<glyph glyph-name="P" horiz-adv-x="463" unicode="P" d="M130 391q0 -7 9 -7h69q39 0 63.5 16.5t38.5 39t19 46.5t5 40t-5 39t-19 44.5t-38.5 36.5t-63.5 15h-69q-9 0 -9 -9v-261zM39 0v750h167q48 0 88 -17.5t69 -47.5t45 -71t16 -89t-16 -89.5t-45 -73t-69 -49.5t-88 -18h-70q-6 0 -6 -6v-289h-91z"/>
<glyph glyph-name="Q" horiz-adv-x="833" unicode="Q" d="M123 375q0 -60 23 -113.5t63 -93.5t93.5 -63t113.5 -23q40 0 77.5 10t69.5 29l-75 78q-12 12 -12 30t14 32q16 14 33 14t29 -13l81 -84q35 39 55.5 89.5t20.5 107.5q0 61 -23 114t-63 93t-93 63t-114 23q-60 0 -113.5 -23t-93.5 -63t-63 -93t-23 -114zM729 15 q-14 -14 -32 -14q-17 0 -30 13l-40 41q-46 -30 -99 -46.5t-112 -16.5q-80 0 -149.5 30t-121.5 82t-82 121.5t-30 149.5q0 79 30 149t82 122t121.5 82t149.5 30q79 0 149 -30t122 -82t82 -122t30 -149q0 -76 -27.5 -143t-75.5 -119l35 -36q13 -13 13 -30q0 -19 -15 -32z"/>
<glyph glyph-name="R" horiz-adv-x="465" unicode="R" d="M119 391q0 -7 9 -7h69q39 0 63.5 16.5t38.5 39t19 46.5t5 40t-5 39t-19 44.5t-38.5 36.5t-63.5 15h-69q-9 0 -9 -9v-261zM337 0l-131 289q-3 6 -11 6h-70q-6 0 -6 -6v-289h-91v750h167q48 0 88 -17.5t69 -47.5t45 -71t16 -89q0 -68 -31 -122.5t-85 -83.5q-3 -2 -3 -7 l142 -312h-99z"/>
<glyph glyph-name="S" horiz-adv-x="472" unicode="S" d="M123 141q14 -29 41.5 -44.5t65.5 -15.5q23 0 45 9.5t39 26t27.5 39t10.5 47.5q0 34 -17.5 60t-44.5 43q-36 23 -78 41t-75 36q-56 31 -80 71t-24 100q0 42 16.5 79t44.5 65t65 44t78 16q56 0 103 -28t73 -73l-80 -41q-13 24 -39.5 38.5t-55.5 14.5q-23 0 -43.5 -9 t-36.5 -24.5t-25.5 -35.5t-9.5 -41q0 -41 15 -62t38 -34q13 -7 33 -16.5t42 -20t43 -21t37 -19.5q55 -32 81 -78t26 -106q0 -43 -17 -81.5t-45.5 -67t-67 -45t-80.5 -16.5q-40 0 -73 11.5t-58 30.5t-41 43t-20 49z"/>
<glyph glyph-name="T" horiz-adv-x="529" unicode="T" d="M503 660h-187q-8 0 -8 -8v-652h-90v652q0 8 -7 8h-185v90h477v-90z"/>
<glyph glyph-name="U" horiz-adv-x="521" unicode="U" d="M37 750h90v-527q0 -29 10 -54.5t27.5 -45t42 -30.5t53.5 -11q28 0 52.5 10.5t42.5 29t28 43.5t10 53v532h90v-539q0 -45 -18 -85t-48.5 -70t-71 -47t-85.5 -17q-46 0 -86.5 17.5t-71 47.5t-48 70.5t-17.5 86.5v536z"/>
<glyph glyph-name="V" horiz-adv-x="615" unicode="V" d="M274 0l-265 750h96l200 -587q1 -3 2 -3q2 0 2 3l202 587h95l-266 -750h-66z"/>
<glyph glyph-name="W" horiz-adv-x="873" unicode="W" d="M579 0l-143 549q-2 2 -3 2l-1 -5q-2 -5 -7 -22.5t-14 -53t-24.5 -97t-38.5 -152.5t-56 -221h-70l-204 750h95l142 -577q0 -3 2 -3l2 3l5 24q5 24 14 62.5t21 88.5t24.5 103t24.5 104t22.5 92.5t17 69.5t8.5 33h75q0 -2 6.5 -27.5t17 -66.5t23.5 -92.5t26 -105.5 q31 -126 70 -285q0 -3 2 -3l2 3l141 577h95l-202 -750h-73z"/>
<glyph glyph-name="X" horiz-adv-x="601" unicode="X" d="M12 0l230 368q1 2 1 5q0 5 -2 7l-229 370h109l175 -281q1 -3 5 -3q2 0 4 3l174 281h109l-230 -370q-2 -4 -2 -6t2 -6l229 -368h-108l-175 280q-2 3 -4 3q-3 0 -4 -3l-175 -280h-109z"/>
<glyph glyph-name="Y" horiz-adv-x="523" unicode="Y" d="M217 0v271l-209 479h99l151 -347q1 -4 4 -4t4 4l150 347h98l-207 -479v-271h-90z"/>
<glyph glyph-name="Z" horiz-adv-x="541" unicode="Z" d="M33 71l350 583q1 1 1 3q0 3 -4 3h-347v90h474v-64l-354 -590q-1 -1 -1 -3q0 -3 4 -3h352v-90h-475v71z"/>
<glyph glyph-name="bracketleft" horiz-adv-x="272" unicode="[" d="M234 -147h-197v957h197v-64h-111v-829h111v-64z"/>
<glyph glyph-name="backslash" horiz-adv-x="308" unicode="\" d="M236 -2l-216 744l53 16l215 -743z"/>
<glyph glyph-name="bracketright" horiz-adv-x="244" unicode="]" d="M23 -83h111v829h-111v64h197v-957h-197v64z"/>
<glyph glyph-name="asciicircum" horiz-adv-x="504" unicode="^" d="M220 750h64l188 -345l-81 -28l-139 265l-139 -264l-81 28z"/>
<glyph glyph-name="underscore" horiz-adv-x="633" unicode="_" d="M633 -64v-56h-633v56h633z"/>
<glyph glyph-name="grave" horiz-adv-x="268" unicode="`" d="M219 554l-192 80l22 51l192 -79z"/>
<glyph glyph-name="a" d="M118 251q0 -36 13.5 -68t36.5 -55t55 -36.5t68 -13.5t67.5 13.5t54.5 36.5t36.5 55t13.5 68t-13.5 67.5t-36.5 54.5t-54.5 36.5t-67.5 13.5t-68 -13.5t-55 -36.5t-36.5 -54.5t-13.5 -67.5zM463 501h85v-501l-85 37v21q-35 -31 -78.5 -48.5t-93.5 -17.5q-54 0 -101 20 t-82.5 55.5t-55.5 82.5t-20 101q0 53 20 100t55.5 82t82.5 55t101 20q50 0 93.5 -17.5t78.5 -48.5v59z" unicode="a"/>
<glyph glyph-name="b" horiz-adv-x="593" unicode="b" d="M468 251q0 36 -13.5 67.5t-36.5 54.5t-55 36.5t-68 13.5t-67.5 -13.5t-54.5 -36.5t-36.5 -54.5t-13.5 -67.5t13.5 -68t36.5 -55t54.5 -36.5t67.5 -13.5t68 13.5t55 36.5t36.5 55t13.5 68zM123 37l-85 -38v702h85v-259q34 31 78 48.5t94 17.5q54 0 101 -20t82.5 -55 t55.5 -82t20 -100q0 -54 -20 -101t-55.5 -82.5t-82.5 -55.5t-101 -20q-50 0 -94 17.5t-78 48.5v-21z"/>
<glyph glyph-name="c" horiz-adv-x="556" unicode="c" d="M291 78q48 0 89 22.5t59 61.5l81 -28q-15 -33 -38 -59t-53 -44.5t-65 -28.5t-73 -10q-54 0 -101 20t-82.5 55.5t-55.5 82.5t-20 101q0 53 20 100t55.5 82t82.5 55t101 20q63 0 116 -30t91 -75l-67 -51q-22 33 -59 52t-81 19q-36 0 -68 -13.5t-55 -36.5t-36.5 -54.5 t-13.5 -67.5t13.5 -68t36.5 -55t55 -36.5t68 -13.5z"/>
<glyph glyph-name="d" horiz-adv-x="565" unicode="d" d="M110 251q0 -36 13.5 -68t36.5 -55t55 -36.5t68 -13.5t67.5 13.5t54.5 36.5t36.5 55t13.5 68t-13.5 67.5t-36.5 54.5t-54.5 36.5t-67.5 13.5t-68 -13.5t-55 -36.5t-36.5 -54.5t-13.5 -67.5zM455 58q-34 -31 -78 -48.5t-94 -17.5q-54 0 -101 20t-82.5 55.5t-55.5 82.5 t-20 101q0 53 20 100t55.5 82t82.5 55t101 20q50 0 94 -17.5t78 -48.5v259h85v-701l-85 37v21z"/>
<glyph glyph-name="e" horiz-adv-x="542" unicode="e" d="M287 423q-32 0 -59 -10t-48.5 -28t-36.5 -42.5t-21 -53.5h303q0 23 -10 47t-28 43.5t-43.5 31.5t-56.5 12zM291 -8q-54 0 -101 20t-82.5 55.5t-55.5 82.5t-20 101q0 53 19.5 100t54 82t81 55t100.5 20q52 0 94 -19.5t71.5 -53t45.5 -77.5t16 -93v-46h-394q6 -31 21 -57 t37.5 -44.5t51.5 -29t61 -10.5q34 0 64.5 11t52.5 34l62 -58q-35 -35 -81 -54t-98 -19z"/>
<glyph glyph-name="f" horiz-adv-x="427" unicode="f" d="M141 578q0 56 29.5 89t80.5 33h120v-71h-98q-47 0 -47 -62v-75h177v-77h-177v-415h-85v415h-117v77h117v86z"/>
<glyph glyph-name="g" horiz-adv-x="580" unicode="g" d="M127 250q0 -36 13.5 -67.5t36.5 -54.5t55 -36.5t68 -13.5t67.5 13.5t54.5 36.5t36.5 54.5t13.5 67.5t-13.5 68t-36.5 55t-54.5 36.5t-67.5 13.5t-68 -13.5t-55 -36.5t-36.5 -55t-13.5 -68zM154 -104q24 -29 57.5 -43t74.5 -14q37 0 69 14t56 38t38 56t14 69v43 q-34 -31 -78 -48.5t-94 -17.5q-54 0 -101 20t-82.5 55t-55.5 82t-20 100q0 54 20 101t55.5 82.5t82.5 55.5t101 20q50 0 94 -17.5t78 -48.5v21l85 37v-484q0 -54 -20.5 -102t-56 -83t-83.5 -55.5t-102 -20.5q-61 0 -112 24t-87 66z"/>
<glyph glyph-name="h" horiz-adv-x="513" unicode="h" d="M38 700h85v-234q56 42 132 42q43 0 83 -16t70 -44t48 -65t18 -80v-303h-85v291q0 27 -11 51t-29 42t-42 29t-51 11q-26 0 -50 -6t-42.5 -20.5t-29.5 -39.5t-11 -62v-296h-85v700z"/>
<glyph glyph-name="i" horiz-adv-x="157" unicode="i" d="M79 567q-18 0 -30.5 12.5t-12.5 30.5q0 17 13 29t30 12q16 0 29 -12.5t13 -28.5q0 -17 -12.5 -30t-29.5 -13zM36 500h85v-500h-85v500z"/>
<glyph glyph-name="j" horiz-adv-x="196" unicode="j" d="M173 -144q0 -24 -13.5 -42.5t-34 -31t-45 -19t-46.5 -6.5v86q5 2 14 5t18 8.5t16 15.5t7 27v601h85zM132 567q-18 0 -30.5 12.5t-12.5 30.5q0 17 13 29t30 12q16 0 29 -12.5t13 -28.5q0 -17 -12.5 -30t-29.5 -13z"/>
<glyph glyph-name="k" horiz-adv-x="382" unicode="k" d="M276 500h106l-174 -240l169 -260h-102l-145 225q-2 4 -4 4t-2 -3v-226h-85v701h85v-407q0 -3 2 -3q1 0 4 5z"/>
<glyph glyph-name="l" horiz-adv-x="162" unicode="l" d="M38 699h85v-699h-85v699z"/>
<glyph glyph-name="m" horiz-adv-x="864" unicode="m" d="M389 291q0 27 -11 51t-29 42t-42 29t-51 11q-26 0 -50 -5.5t-42.5 -20t-29.5 -39t-11 -61.5v-298h-85v500l85 -35q55 43 132 43q53 0 99 -22.5t77 -61.5q30 39 76 61.5t99 22.5q43 0 83 -16t70 -44t48 -65t18 -80v-303h-85v291q0 27 -11 51t-29 42t-42 29t-51 11 q-26 0 -50 -9.5t-43 -26.5t-30.5 -39.5t-11.5 -47.5v-301h-83v291z"/>
<glyph glyph-name="n" horiz-adv-x="513" unicode="n" d="M389 291q0 27 -11 51t-29 42t-42 29t-51 11q-26 0 -50 -6t-42.5 -20.5t-29.5 -39.5t-11 -62v-296h-85v500l85 -35q55 43 132 43q43 0 83 -16t70 -44t48 -65t18 -80v-303h-85v291z"/>
<glyph glyph-name="o" d="M32 251q0 53 20 100t55.5 82t82.5 55t101 20q53 0 100 -20t82 -55t55 -82t20 -100q0 -54 -20 -101t-55 -82.5t-82 -55.5t-100 -20q-54 0 -101 20t-82.5 55.5t-55.5 82.5t-20 101zM118 251q0 -36 13.5 -68t36.5 -55t55 -36.5t68 -13.5t67.5 13.5t54.5 36.5t36.5 55 t13.5 68t-13.5 67.5t-36.5 54.5t-54.5 36.5t-67.5 13.5t-68 -13.5t-55 -36.5t-36.5 -54.5t-13.5 -67.5z" unicode="o"/>
<glyph glyph-name="p" horiz-adv-x="593" unicode="p" d="M468 250q0 36 -13.5 68t-36.5 55t-55 36.5t-68 13.5t-67.5 -13.5t-54.5 -36.5t-36.5 -55t-13.5 -68t13.5 -67.5t36.5 -54.5t54.5 -36.5t67.5 -13.5t68 13.5t55 36.5t36.5 54.5t13.5 67.5zM123 443q34 31 78 48.5t94 17.5q54 0 101 -20t82.5 -55.5t55.5 -82.5t20 -101 q0 -53 -20 -100t-55.5 -82t-82.5 -55t-101 -20q-50 0 -94 17.5t-78 48.5v-264h-85v706l85 -37v-21z"/>
<glyph glyph-name="q" horiz-adv-x="565" unicode="q" d="M109 250q0 -36 13.5 -67.5t36.5 -54.5t55 -36.5t68 -13.5t67.5 13.5t54.5 36.5t36.5 54.5t13.5 67.5t-13.5 68t-36.5 55t-54.5 36.5t-67.5 13.5t-68 -13.5t-55 -36.5t-36.5 -55t-13.5 -68zM454 464l85 37v-706h-85v264q-34 -31 -78 -48.5t-94 -17.5q-54 0 -101 20 t-82.5 55t-55.5 82t-20 100q0 54 20 101t55.5 82.5t82.5 55.5t101 20q50 0 94 -17.5t78 -48.5v21z"/>
<glyph glyph-name="r" horiz-adv-x="338" unicode="r" d="M302 422q-39 0 -72 -5.5t-57 -20t-37 -39t-13 -61.5v-296h-85v500l85 -35q13 10 26.5 18t33 13.5t48 8.5t71.5 3v-86z"/>
<glyph glyph-name="s" horiz-adv-x="342" unicode="s" d="M309 132q0 -31 -11.5 -56.5t-31 -44t-46 -29t-57.5 -10.5q-20 0 -40 5.5t-38 15.5t-31 24t-19 31l68 47q5 -6 10.5 -12.5t12 -12t16.5 -9.5t24 -4q23 0 40.5 16.5t17.5 39.5q0 52 -105 113q-36 21 -60 47.5t-24 72.5q0 28 11.5 54t31 45.5t45 31t54.5 11.5q17 0 35 -5 t34 -13.5t29 -20t21 -24.5l-65 -57l-23 23t-35 12q-24 0 -38.5 -14t-14.5 -37q0 -17 14 -30.5t35 -27t45.5 -29t45.5 -36.5t35 -49t14 -68z"/>
<glyph glyph-name="t" horiz-adv-x="418" unicode="t" d="M166 646h85v-154h144v-77h-144v-415h-85v415h-145v77h145v154z"/>
<glyph glyph-name="u" horiz-adv-x="508" unicode="u" d="M121 211q0 -27 11 -51t29 -42t42 -29t51 -11q26 0 50 6t42.5 20.5t29.5 39t11 62.5v293h85v-499l-85 37q-27 -21 -60.5 -33t-71.5 -12q-44 0 -83.5 16.5t-69.5 44.5t-48 65.5t-18 80.5v300h85v-288z"/>
<glyph glyph-name="v" horiz-adv-x="453" unicode="v" d="M14 500h92l120 -365l121 364l92 1l-178 -500h-71z"/>
<glyph glyph-name="w" horiz-adv-x="740" unicode="w" d="M16 500h91l115 -365l115 365h67l113 -365l114 365h91l-170 -500h-73l-110 342l-111 -342h-72z"/>
<glyph glyph-name="x" horiz-adv-x="427" unicode="x" d="M106 0h-101l158 249l-161 252h103l108 -173l109 172h101l-159 -251l158 -249h-101l-108 169z"/>
<glyph glyph-name="y" horiz-adv-x="438" unicode="y" d="M187 -206h-88l76 210l-173 496h91l126 -372l129 374h89z"/>
<glyph glyph-name="z" horiz-adv-x="425" unicode="z" d="M40 0v56l237 365h-237v79h340v-65l-231 -356h238v-79h-347z"/>
<glyph glyph-name="braceleft" horiz-adv-x="401" unicode="{" d="M70 387q52 5 75 37t23 98v127q0 62 12 98.5t47 58.5q22 13 44.5 17.5t64.5 4.5v-80q-48 -5 -67.5 -32t-19.5 -84v-128q0 -35 -4 -61t-15.5 -45.5t-32 -33t-53.5 -22.5q-4 0 -4 -2t4 -2q33 -9 53.5 -22.5t32 -33t15.5 -46t4 -60.5v-128q0 -57 19.5 -84t67.5 -32l-1 -80 q-21 0 -36 1t-27.5 3.5t-23 7t-21.5 10.5q-35 22 -47 58.5t-12 98.5v127q0 66 -23 97.5t-75 36.5v95z"/>
<glyph glyph-name="bar" horiz-adv-x="154" unicode="|" d="M38 770h77v-778h-77v778z"/>
<glyph glyph-name="braceright" horiz-adv-x="418" unicode="}" d="M336 292q-52 -5 -75 -36.5t-23 -97.5v-127q0 -62 -12 -98.5t-47 -58.5q-11 -6 -21.5 -10.5t-23 -7t-27.5 -3.5t-36 -1l-1 80q48 5 67.5 32t19.5 84v128q0 34 4 60.5t15.5 46t32 33t53.5 22.5q4 0 4 2t-4 2q-33 9 -53.5 22.5t-32 33t-15.5 45.5t-4 61v128q0 57 -19.5 84 t-67.5 32v80q42 0 64.5 -4.5t44.5 -17.5q35 -22 47 -58.5t12 -98.5v-127q0 -66 23 -98t75 -37v-95z"/>
<glyph glyph-name="asciitilde" horiz-adv-x="610" unicode="~" d="M425 184q-28 0 -59 11.5t-61.5 25.5t-59.5 26t-54 14h-14q-27 0 -47 -11t-34 -25q-16 -16 -28 -35l-33 33q0 7 8 23.5t25.5 33.5t44 30t64.5 15h13q28 -1 58 -13t60 -25.5t58.5 -25.5t52.5 -13h4q30 0 52 10.5t37 24.5q18 16 30 36l33 -33q0 -8 -8.5 -25t-26.5 -34 t-46.5 -30t-68.5 -13z"/>
<glyph glyph-name="exclamdown" horiz-adv-x="166" unicode="¡" d="M38 705q0 19 13 32t32 13q18 0 31.5 -13t13.5 -32q0 -18 -13.5 -31.5t-31.5 -13.5q-19 0 -32 13.5t-13 31.5zM128 614v-618h-90v618h90z"/>
<glyph glyph-name="cent" horiz-adv-x="548" unicode="¢" d="M114 251q0 -59 33 -103.5t86 -61.5v329q-53 -17 -86 -61.5t-33 -102.5zM233 -2q-44 9 -81.5 32t-65 56.5t-43 75.5t-15.5 89q0 46 15.5 87.5t43 75t65 56.5t81.5 32v91h85v-87q54 -8 98 -36.5t78 -66.5l-67 -51q-18 27 -46.5 44.5t-62.5 23.5v-340q38 7 70 28t47 54 l81 -28q-26 -59 -79 -96t-119 -44v-81h-85v85z"/>
<glyph glyph-name="sterling" horiz-adv-x="584" unicode="£" d="M552 200q0 -62 -18.5 -100.5t-50 -61t-74 -30.5t-90.5 -8h-240v91h33q14 0 28.5 4.5t26.5 15.5t20 28t8 43q0 21 -11 51.5t-24.5 58.5t-24.5 47.5t-12 19.5h-64v65h36q-11 44 -16 68t-5 39q0 48 17 89t47.5 72t72 48.5t90.5 17.5q56 0 99 -17.5t78 -50.5l-70 -58 q-10 12 -24 19t-28.5 10.5t-28 4.5t-23.5 1q-29 0 -54 -10t-43.5 -27.5t-29.5 -40.5t-11 -49q0 -21 3 -41.5t7 -37t7.5 -26.5t4.5 -10h186v-66h-159l29 -49q18 -30 30 -63t12 -64q0 -16 -6 -32t-14 -29q-9 -16 -19 -30h100q59 0 87 27.5t29 83.5z"/>
<glyph glyph-name="currency" horiz-adv-x="623" unicode="¤" d="M312 496q-32 0 -60 -12.5t-49.5 -34.5t-34 -50.5t-12.5 -59.5q0 -32 12.5 -60.5t33.5 -49.5t49.5 -33.5t60.5 -12.5q31 0 59.5 12.5t49.5 33.5t33.5 49.5t12.5 60.5t-12.5 60.5t-34 50t-49.5 34t-59 12.5zM76 67l-39 40l94 95l-7 11q-19 29 -29.5 60t-10.5 66 q0 38 13.5 70t29.5 58l6 10l-97 96l40 40l96 -97l10 6q36 20 66 31t67 11q32 0 61.5 -11.5t61.5 -30.5l10 -6l97 96l40 -39l-95 -95l6 -10q43 -65 43 -130q0 -30 -10 -60.5t-31 -65.5l-6 -10l95 -95l-39 -40l-95 96l-11 -8q-29 -22 -63 -32.5t-69 -10.5q-56 0 -129 43l-10 6 l-9 -8z"/>
<glyph glyph-name="yen" horiz-adv-x="611" unicode="¥" d="M582 286h-224l-6 -15v-271h-90v271l-7 15h-228v66h200l-48 110h-152v66h123l-97 222h97l153 -347q1 -4 4 -4t4 4l150 347h99l-97 -222h119v-66h-148l-47 -110h195v-66z"/>
<glyph glyph-name="brokenbar" horiz-adv-x="153" unicode="¦" d="M38 306h77v-317h-77v317zM38 771h77v-317h-77v317z"/>
<glyph glyph-name="section" horiz-adv-x="570" unicode="§" d="M202 361l-14 -11l-17.5 -15t-20 -21.5t-16 -28.5t-6.5 -36q0 -23 9 -40.5t21 -30t24 -20t19 -10.5l150 -63l14 8q12 7 24.5 16t22.5 22t16.5 29.5t6.5 37.5q0 13 -4 27t-15.5 28.5t-31 28.5t-49.5 26zM277 -247q-31 0 -63.5 7.5t-62 20t-53.5 29t-38 34.5l61 72 q10 -8 22 -18.5t28.5 -20.5t37.5 -16.5t49 -6.5q20 0 39.5 4t35.5 12.5t25.5 21.5t9.5 31q0 25 -12 43.5t-34.5 33.5t-53.5 27.5t-68 27.5l-20 8q-28 10 -54.5 26t-47.5 38t-33.5 50.5t-12.5 64.5q0 24 4.5 43t14.5 36t26 33t38 35l26 22q-42 29 -53 57.5t-11 57.5 q0 39 15.5 70t43.5 53t65 34t81 12q26 0 54.5 -4t55 -11.5t49.5 -18.5t40 -25l-62 -89q-11 7 -23 16t-26.5 17t-32.5 13t-41 5q-22 0 -42 -5t-35.5 -15.5t-24.5 -27t-9 -38.5t13.5 -37.5t39 -29.5t61.5 -30t81 -38q74 -31 115.5 -71t41.5 -95q0 -27 -5 -49t-19 -42.5 t-39 -40.5t-64 -42q35 -26 47.5 -52.5t12.5 -67.5q0 -36 -15 -66t-41 -51.5t-61 -34t-76 -12.5z"/>
<glyph glyph-name="dieresis" horiz-adv-x="315" unicode="¨" d="M236 584q-18 0 -30.5 12.5t-12.5 30.5q0 17 13 29t30 12q16 0 29 -12.5t13 -28.5q0 -17 -12.5 -30t-29.5 -13zM79 584q-18 0 -30.5 12.5t-12.5 30.5q0 17 13 29t30 12q16 0 29 -12.5t13 -28.5q0 -17 -12.5 -30t-29.5 -13z"/>
<glyph glyph-name="copyright" horiz-adv-x="790" unicode="©" d="M415 133q-50 0 -92 18.5t-73.5 49.5t-49 72t-17.5 87t17.5 87.5t49 72.5t73.5 49.5t92 18.5q28 0 51 -6t40 -14t28 -16t16 -12l-27 -47q-25 23 -54 32t-54 9q-38 0 -71 -13.5t-57 -37t-37.5 -55t-13.5 -68.5q0 -34 14 -65.5t38.5 -55.5t57 -38t68.5 -14q26 0 55 9.5 t52 29.5l33 -44q-3 -4 -14 -12t-28.5 -16.5t-42 -14.5t-54.5 -6zM81 360q0 -65 24.5 -122t67 -99.5t99.5 -67t123 -24.5q65 0 123 24.5t101.5 67t68.5 99.5t25 122q0 66 -25 123t-68.5 99.5t-101.5 67t-123 24.5q-66 0 -123 -24.5t-99.5 -67t-67 -99.5t-24.5 -123zM32 360 q0 75 29 141t78.5 115.5t115.5 78t140 28.5q76 0 142 -28.5t115 -78t77 -115.5t28 -141q0 -74 -28 -140t-77 -115.5t-115 -78t-142 -28.5q-74 0 -140 28.5t-115.5 78t-78.5 115.5t-29 140z"/>
<glyph glyph-name="ordfeminine" horiz-adv-x="413" unicode="ª" d="M90 553q0 -25 9 -46.5t24.5 -37t37 -24.5t46.5 -9q24 0 45 9t37 24.5t25 37t9 46.5q0 24 -9 45t-25 37t-37 25t-45 9q-25 0 -46.5 -9t-37 -25t-24.5 -37t-9 -45zM323 716h57v-338l-57 30v15q-23 -21 -53 -33t-63 -12q-36 0 -68 13.5t-56 37.5t-37.5 56t-13.5 68 t13.5 67.5t37.5 55t56 37t68 13.5q33 0 63 -12t53 -33v35z"/>
<glyph glyph-name="guillemotleft" horiz-adv-x="376" unicode="«" d="M290 464l55 -36l-102 -159l102 -158l-55 -36q-44 69 -69 108t-37 57l-16 24q-3 4 -3 6zM146 464l55 -36l-102 -159l102 -158l-55 -36q-44 69 -69 108t-37 57l-16 24q-3 4 -3 6z"/>
<glyph glyph-name="logicalnot" horiz-adv-x="565" unicode="¬" d="M544 78h-66v251h-457v66h523v-317z"/>
<glyph glyph-name="registered" horiz-adv-x="830" unicode="®" d="M360 541v-154q0 -3 5 -3h41q24 0 38 10t22 22q8 14 12 28q3 14 3 23t-3 23q-4 14 -12 26t-22 22q-14 9 -38 9h-41q-5 0 -5 -6zM547 154h-56l-79 173q-3 4 -7 4h-41q-4 0 -4 -4v-174h-53v446h98q28 0 52 -10t41 -28q16 -18 26 -42t10 -52q0 -41 -18 -73t-51 -49 q-2 0 -2 -4zM82 375q0 -69 26 -130t71 -106t105 -71t130 -26q69 0 131 26t108 71t73 106t27 130t-27 130t-73 106t-108 71t-131 26q-70 0 -130 -26t-105 -71t-71 -106t-26 -130zM32 375q0 78 30 148t83 122q51 53 121 83t148 30q80 0 150 -30t122 -83q52 -52 82 -122 t29 -148q1 -78 -29 -148t-82 -122q-52 -53 -122 -83t-150 -30q-78 0 -148 30t-121 83q-53 52 -83 122t-30 148z"/>
<glyph glyph-name="macron" horiz-adv-x="391" unicode="¯" d="M352 640h-314v66h314v-66z"/>
<glyph glyph-name="degree" horiz-adv-x="387" unicode="°" d="M77 563q0 -24 9 -45t25 -37t37 -25t45 -9t45 9t37 25t25 37t9 45t-9 45t-25 37t-37 25t-45 9t-45 -9t-37 -25t-25 -37t-9 -45zM32 563q0 33 12.5 62.5t34.5 51.5t51.5 34.5t62.5 12.5t62.5 -12.5t51.5 -34.5t34.5 -51.5t12.5 -62.5t-12.5 -62.5t-34.5 -51.5t-51.5 -34.5 t-62.5 -12.5t-62.5 12.5t-51.5 34.5t-34.5 51.5t-12.5 62.5z"/>
<glyph glyph-name="plusminus" horiz-adv-x="582" unicode="±" d="M555 30h-527v66h527v-66zM259 124v163h-231v62h231v168h62v-168h234v-62h-234v-163h-62z"/>
<glyph glyph-name="twosuperior" horiz-adv-x="376" unicode="²" d="M325.882 300h-276.002v64.6543q7.24707 7.85547 26.2715 25.0762q19.0244 17.2217 43.4844 39.5781q24.459 22.3574 50.7305 48.0381t48.0137 51.0596q21.7422 25.3779 35.9346 48.6416t14.1924 40.7861q0 17.5234 -6.64258 32.9316q-6.64355 15.4082 -18.1182 26.5869 q-11.4756 11.1787 -26.876 17.8252q-15.4004 6.64746 -32.3105 6.64746q-27.7822 0 -49.5234 -16.0127q-21.7422 -16.0127 -30.8018 -41.9951l-51.335 16.9189q6.64355 20.5439 19.9307 38.0674q13.2861 17.5234 30.499 30.2119q17.2119 12.6895 38.0479 19.6387 t43.1826 6.94922q28.9893 0 54.0527 -10.877t43.7861 -29.9102q18.7217 -19.0342 29.5928 -44.1104t10.8711 -52.8721q0 -29.0039 -17.8164 -60.4238q-17.8164 -31.4219 -44.9941 -62.8418q-27.1768 -31.4219 -59.1865 -61.6338q-32.0088 -30.2119 -60.3936 -55.5908 l-14.4951 -13.293q-7.85156 -6.04297 -7.85156 -7.85547t12.0791 -1.8125h195.678v-54.3828z"/>
<glyph glyph-name="threesuperior" horiz-adv-x="364" unicode="³" d="M95.2246 418.177q3.62402 -14.4961 11.4766 -27.1807q7.85156 -12.6836 19.0254 -22.0459t25.3682 -14.4961t29.8984 -5.13379q17.5166 0 33.2197 6.94629q15.7051 6.94629 27.7852 18.7236q12.0801 11.7783 19.3281 28.0859q7.24805 16.3086 7.24805 35.0332 q0 18.1191 -6.04102 35.334q-6.03906 17.2139 -16.9121 31.4082q-10.8711 14.1934 -25.9717 23.2539t-33.2197 10.2676h-3.92676t-3.92578 0.604492l-2.41602 46.5088q6.64355 4.83203 14.1943 9.96582q7.5498 5.13379 14.1934 12.9854q6.64453 7.85254 10.873 19.0264 q4.22754 11.1748 4.22754 27.4824q0 8.45605 -2.11426 17.5166q-2.11328 9.05957 -6.94531 16.3076t-12.6846 11.7783q-7.85254 4.5293 -18.7236 4.5293q-10.2686 0 -17.8184 -2.11328q-7.55078 -2.11426 -13.2881 -6.04004q-5.73828 -3.92676 -11.1748 -9.66406 q-5.43555 -5.73828 -11.4756 -13.5908l-45.9043 27.7852q3.02051 6.64355 7.85254 12.3818q4.83203 5.7373 9.66406 10.5693q8.45508 8.45703 16.9121 14.7988q8.45508 6.3418 18.1191 10.8721t21.4424 6.64355q11.7783 2.11426 27.4824 2.11426q16.3076 0 32.6162 -6.64355 q16.3086 -6.64453 29.5957 -19.0264q13.2891 -12.3818 21.7441 -29.5967q8.45703 -17.2139 8.45703 -38.958q0 -20.5361 -5.13477 -42.8838q-5.13379 -22.3486 -25.6699 -50.1328q44.0918 -22.9521 61.9102 -58.2861q17.8184 -35.335 17.8184 -75.1982 q0 -28.9922 -11.1738 -54.6631q-11.1738 -25.6699 -30.2002 -44.998t-44.6963 -30.8037q-25.6699 -11.4766 -55.2666 -11.4766q-24.7646 0 -48.0186 8.45605t-42.2803 23.5557q-19.0264 15.1006 -32.0117 35.9385q-12.9863 20.8389 -17.2139 44.999z"/>
<glyph glyph-name="acute" horiz-adv-x="270" unicode="´" d="M27 606l192 79l22 -51l-192 -80z"/>
<glyph glyph-name="mu" horiz-adv-x="513" unicode="µ" d="M38 537h85v-330q0 -27 11 -51t29 -42t42 -29t51 -11q26 0 50 10.5t42.5 28t29.5 40.5t11 49v335h85v-537l-85 33q-27 -21 -60.5 -33t-71.5 -12t-72 12t-62 33v-247h-85v751z"/>
<glyph glyph-name="mu" horiz-adv-x="513" unicode="μ" d="M38 537h85v-330q0 -27 11 -51t29 -42t42 -29t51 -11q26 0 50 10.5t42.5 28t29.5 40.5t11 49v335h85v-537l-85 33q-27 -21 -60.5 -33t-71.5 -12t-72 12t-62 33v-247h-85v751z"/>
<glyph glyph-name="paragraph" horiz-adv-x="574" unicode="¶" d="M260 -213v576q-53 1 -96 13t-73.5 34t-47.5 53.5t-17 70.5q0 54 19 88.5t52 54.5t78 27.5t97 7.5h275v-925h-90v838h-107v-838h-90z"/>
<glyph glyph-name="periodcentered" horiz-adv-x="151" unicode="·" d="M76 337q-18 0 -30.5 12.5t-12.5 30.5q0 17 13 29t30 12q16 0 29 -12.5t13 -28.5q0 -17 -12.5 -30t-29.5 -13z"/>
<glyph glyph-name="cedilla" horiz-adv-x="258" unicode="¸" d="M160 0l-39 -51q5 0 11 1.5t22 1.5q32 0 53.5 -20t21.5 -56q0 -24 -10.5 -42t-26.5 -29.5t-36 -17t-38 -5.5q-19 0 -35 7.5t-28 17.5q-14 11 -27 25l28 22q7 -5 18 -9q9 -4 21.5 -6.5t28.5 -2.5t31 10.5t15 28.5q0 20 -12 30t-25 10q-6 0 -17 -1.5t-22 -1.5l-29 15l52 73 h43z"/>
<glyph glyph-name="onesuperior" horiz-adv-x="153" unicode="¹" d="M82.9922 300v393.863q0 3.59668 -0.899414 5.69531q-0.900391 2.09766 -5.7002 2.09766h-60.5977v47.959h121.795v-449.615h-54.5977z"/>
<glyph glyph-name="ordmasculine" horiz-adv-x="411" unicode="º" d="M32 551q0 36 13.5 67t37 54.5t55.5 37t68 13.5t67 -13.5t54.5 -37t37 -54.5t13.5 -67t-13.5 -68t-37 -55.5t-54.5 -37t-67 -13.5t-68 13.5t-55.5 37t-37 55.5t-13.5 68zM90 551q0 -24 9 -45.5t24.5 -37t37 -24.5t45.5 -9t45 9t36.5 24.5t24.5 37t9 45.5t-9 45t-24.5 36.5 t-36.5 24.5t-45 9t-45.5 -9t-37 -24.5t-24.5 -36.5t-9 -45z"/>
<glyph glyph-name="guillemotright" horiz-adv-x="394" unicode="»" d="M201 270q0 -2 -3 -6q-4 -4 -16 -24q-12 -18 -37 -57t-69 -108l-55 36l102 158l-102 159l55 36zM345 270q0 -2 -3 -6q-4 -4 -16 -24q-12 -18 -37 -57t-69 -108l-55 36l102 158l-102 159l55 36z"/>
<glyph glyph-name="onequarter" horiz-adv-x="739" unicode="¼" d="M576 143q5 0 5 5v221q0 2 -2 2l-3 -3q-2 -4 -16 -25t-43.5 -66.5t-83.5 -129.5q0 -4 2 -4h141zM689 85h-46q-4 0 -4 -4v-81h-58v81q0 4 -4 4h-209v54l223 349h48v-341q0 -4 4 -4h46v-58zM191 15l215 743l53 -16l-216 -744zM91 264v427q0 4 -1 6.5t-6 2.5h-65v52h131v-488 h-59z"/>
<glyph glyph-name="onehalf" horiz-adv-x="768" unicode="½" d="M191 15l215 743l53 -16l-216 -744zM91 264v427q0 4 -1 6.5t-6 2.5h-65v52h131v-488h-59zM726 0h-297v69q8 9 28.5 27.5t46.5 42.5t54.5 51.5t52 55t38.5 52.5t15 44q0 38 -26.5 64t-63.5 26q-30 0 -53.5 -17t-33.5 -45l-55 18q15 45 54.5 73.5t87.5 28.5q31 0 58 -12 t47 -32t32 -47t12 -57q0 -31 -19.5 -65t-48.5 -68t-63.5 -66t-65.5 -60l-15 -14q-9 -8 -9 -9q0 -2 13 -2h211v-58z"/>
<glyph glyph-name="threequarters" horiz-adv-x="838" unicode="¾" d="M683 143q5 0 5 5v221q0 2 -2 2l-2 -3q-2 -4 -16.5 -25t-44 -66.5t-83.5 -129.5q0 -4 2 -4h141zM796 85h-46q-4 0 -4 -4v-81h-58v81q0 4 -4 4h-209v54l223 349h48v-341q0 -4 4 -4h46v-58zM298 15l215 743l53 -16l-216 -744zM88 384q8 -32 33 -53t60 -21q19 0 36 7.5 t30 20.5t20.5 30.5t7.5 37.5q0 19 -6.5 38t-18.5 34t-28.5 24.5t-35.5 11.5h-8l-3 50q7 5 15.5 11t15.5 14t11.5 20t4.5 30q0 19 -10 36.5t-33 17.5t-33.5 -8.5t-24.5 -25.5l-50 30q7 13 19 25q19 18 38 27.5t53 9.5q17 0 34.5 -7t32 -20.5t23.5 -32t9 -41.5t-5 -47t-28 -54 q48 -24 67 -62t19 -81q0 -31 -12 -59t-32.5 -49t-48.5 -33t-59 -12q-27 0 -52 9t-45.5 25.5t-35 39t-18.5 48.5z"/>
<glyph glyph-name="questiondown" horiz-adv-x="418" unicode="¿" d="M264 709q0 -19 -13 -32t-32 -13t-32 13t-13 32t13 32t32 13t32 -13t13 -32zM386 89q-9 -15 -25.5 -31.5t-38.5 -30t-49.5 -22.5t-58.5 -9q-36 0 -69 11t-58.5 33.5t-40.5 56t-15 77.5q0 41 14 72t35 56t45 46t45 42t35 44t14 51q0 15 -4 31t-9 30q-6 16 -13 32l79 32 q10 -12 19 -28q7 -14 13 -32t6 -40q0 -50 -14 -86t-35 -63.5t-45 -49t-45 -42t-35 -43.5t-14 -53q0 -27 8 -44t21 -26.5t29.5 -13t33.5 -3.5q22 0 37.5 7t27.5 17t22 21t19 20z"/>
<glyph glyph-name="Agrave" horiz-adv-x="617" unicode="À" d="M306 584l-108 -318q-1 -1 -1 -3q0 -5 5 -5h211q7 0 7 5q0 1 -0.5 1.5t-0.5 1.5l-109 318q0 3 -2 3q-1 0 -2 -3zM340 750l265 -750h-96l-56 161q-2 7 -9 7h-272q-9 0 -10 -7l-57 -161h-94l263 750h66zM393 754l-192 80l22 51l192 -79z"/>
<glyph glyph-name="Aacute" horiz-adv-x="617" unicode="Á" d="M306 584l-108 -318q-1 -1 -1 -3q0 -5 5 -5h211q7 0 7 5q0 1 -0.5 1.5t-0.5 1.5l-109 318q0 3 -2 3q-1 0 -2 -3zM340 750l265 -750h-96l-56 161q-2 7 -9 7h-272q-9 0 -10 -7l-57 -161h-94l263 750h66zM201 806l192 79l22 -51l-192 -80z"/>
<glyph glyph-name="Acircumflex" horiz-adv-x="617" unicode="Â" d="M306 584l-108 -318q-1 -1 -1 -3q0 -5 5 -5h211q7 0 7 5q0 1 -0.5 1.5t-0.5 1.5l-109 318q0 3 -2 3q-1 0 -2 -3zM340 750l265 -750h-96l-56 161q-2 7 -9 7h-272q-9 0 -10 -7l-57 -161h-94l263 750h66zM426 825l-2 -56q-8 0 -40 13t-76 33q-44 -20 -75.5 -34t-39.5 -14 l-2 56l117 49z"/>
<glyph glyph-name="Atilde" horiz-adv-x="617" unicode="Ã" d="M306 584l-108 -318q-1 -1 -1 -3q0 -5 5 -5h211q7 0 7 5q0 1 -0.5 1.5t-0.5 1.5l-109 318q0 3 -2 3q-1 0 -2 -3zM340 750l265 -750h-96l-56 161q-2 7 -9 7h-272q-9 0 -10 -7l-57 -161h-94l263 750h66zM141 874q0 34 25 51t56 17h7q17 0 33 -4.5t32 -10.5t31.5 -10.5 t31.5 -4.5q24 0 40.5 4.5t27.5 10.5q12 7 21 16l29 -36q0 -18 -8 -31t-20 -21t-26 -12t-27 -4q-19 0 -37 4.5t-35.5 10.5t-33 10.5t-30.5 4.5h-7q-18 0 -33 -5t-26 -11q-13 -7 -24 -15z"/>
<glyph glyph-name="Adieresis" horiz-adv-x="617" unicode="Ä" d="M306 584l-108 -318q-1 -1 -1 -3q0 -5 5 -5h211q7 0 7 5q0 1 -0.5 1.5t-0.5 1.5l-109 318q0 3 -2 3q-1 0 -2 -3zM340 750l265 -750h-96l-56 161q-2 7 -9 7h-272q-9 0 -10 -7l-57 -161h-94l263 750h66zM387 784q-18 0 -30.5 12.5t-12.5 30.5q0 17 13 29t30 12 q16 0 29 -12.5t13 -28.5q0 -17 -12.5 -30t-29.5 -13zM230 784q-18 0 -30.5 12.5t-12.5 30.5q0 17 13 29t30 12q16 0 29 -12.5t13 -28.5q0 -17 -12.5 -30t-29.5 -13z"/>
<glyph glyph-name="Aring" horiz-adv-x="617" unicode="Å" d="M306 584l-108 -318q-1 -1 -1 -3q0 -5 5 -5h211q7 0 7 5q0 1 -0.5 1.5t-0.5 1.5l-109 318q0 3 -2 3q-1 0 -2 -3zM340 750l265 -750h-96l-56 161q-2 7 -9 7h-272q-9 0 -10 -7l-57 -161h-94l263 750h66zM308 775q10 0 16.5 6t6.5 17q0 10 -6.5 16.5t-16.5 6.5 q-11 0 -17 -6.5t-6 -16.5q0 -23 23 -23zM308 757q-18 0 -29.5 12t-11.5 29q0 18 12 30t29 12t29.5 -12.5t12.5 -29.5t-12 -29t-30 -12z"/>
<glyph glyph-name="AE" horiz-adv-x="768" unicode="Æ" d="M363 658l-154 -392q-1 -1 -1 -3q0 -5 5 -5h155v392l-1 8q0 3 -2 3q-1 0 -2 -3zM736 0h-368v168h-185q-9 0 -10 -7l-68 -161h-94l290 750h435v-90h-272q-6 0 -6 -4v-230q0 -4 6 -4h272v-90h-272q-6 0 -6 -5v-231q0 -6 6 -6h272v-90z"/>
<glyph glyph-name="Ccedilla" horiz-adv-x="695" unicode="Ç" d="M420 -8q-79 0 -148.5 30.5t-122 82.5t-83 121.5t-30.5 147.5q0 79 30.5 148.5t82.5 122t122 83t149 30.5q54 0 95.5 -10.5t71.5 -24.5t48 -27.5t24 -18.5l-54 -74q-39 32 -87 48.5t-100 16.5q-62 0 -115.5 -23.5t-92.5 -63.5t-61.5 -93.5t-22.5 -113.5q0 -56 24.5 -108.5 t65.5 -93.5t94 -65.5t110 -24.5q51 0 98.5 16.5t86.5 48.5l53 -75q-6 -5 -23.5 -18t-47.5 -27t-71.5 -24.5t-95.5 -10.5zM379 0l-39 -51q5 0 11 1.5t22 1.5q32 0 53.5 -20t21.5 -56q0 -24 -10.5 -42t-26.5 -29.5t-36 -17t-38 -5.5q-19 0 -35 7.5t-28 17.5q-14 11 -27 25 l28 22q7 -5 18 -9q9 -4 21.5 -6.5t28.5 -2.5t31 10.5t15 28.5q0 20 -12 30t-25 10q-6 0 -17 -1.5t-22 -1.5l-29 15l52 73h43z"/>
<glyph glyph-name="Egrave" horiz-adv-x="450" unicode="È" d="M409 0h-368v750h368v-90h-272q-6 0 -6 -4v-230q0 -4 6 -4h272v-90h-272q-6 0 -6 -5v-231q0 -6 6 -6h272v-90zM310 754l-192 80l22 51l192 -79z"/>
<glyph glyph-name="Eacute" horiz-adv-x="450" unicode="É" d="M409 0h-368v750h368v-90h-272q-6 0 -6 -4v-230q0 -4 6 -4h272v-90h-272q-6 0 -6 -5v-231q0 -6 6 -6h272v-90zM118 806l192 79l22 -51l-192 -80z"/>
<glyph glyph-name="Ecircumflex" horiz-adv-x="450" unicode="Ê" d="M409 0h-368v750h368v-90h-272q-6 0 -6 -4v-230q0 -4 6 -4h272v-90h-272q-6 0 -6 -5v-231q0 -6 6 -6h272v-90zM342 825l-2 -56q-8 0 -40 13t-76 33q-44 -20 -75.5 -34t-39.5 -14l-2 56l117 49z"/>
<glyph glyph-name="Edieresis" horiz-adv-x="450" unicode="Ë" d="M409 0h-368v750h368v-90h-272q-6 0 -6 -4v-230q0 -4 6 -4h272v-90h-272q-6 0 -6 -5v-231q0 -6 6 -6h272v-90zM304 784q-18 0 -30.5 12.5t-12.5 30.5q0 17 13 29t30 12q16 0 29 -12.5t13 -28.5q0 -17 -12.5 -30t-29.5 -13zM147 784q-18 0 -30.5 12.5t-12.5 30.5 q0 17 13 29t30 12q16 0 29 -12.5t13 -28.5q0 -17 -12.5 -30t-29.5 -13z"/>
<glyph glyph-name="Igrave" horiz-adv-x="169" unicode="Ì" d="M39 0v749h90v-749h-90zM171 754l-192 80l22 51l192 -79z"/>
<glyph glyph-name="Iacute" horiz-adv-x="169" unicode="Í" d="M39 0v749h90v-749h-90zM-21 806l192 79l22 -51l-192 -80z"/>
<glyph glyph-name="Icircumflex" horiz-adv-x="169" unicode="Î" d="M39 0v749h90v-749h-90zM203 825l-2 -56q-8 0 -40 13t-76 33q-44 -20 -75.5 -34t-39.5 -14l-2 56l117 49z"/>
<glyph glyph-name="Idieresis" horiz-adv-x="169" unicode="Ï" d="M39 0v749h90v-749h-90zM165 784q-18 0 -30.5 12.5t-12.5 30.5q0 17 13 29t30 12q16 0 29 -12.5t13 -28.5q0 -17 -12.5 -30t-29.5 -13zM8 784q-18 0 -30.5 12.5t-12.5 30.5q0 17 13 29t30 12q16 0 29 -12.5t13 -28.5q0 -17 -12.5 -30t-29.5 -13z"/>
<glyph glyph-name="Eth" horiz-adv-x="792" unicode="Ð" d="M377 311h-128v-215q0 -6 6 -6h134q58 0 109.5 23t90 62t61 90.5t22.5 109.5t-22.5 110t-61.5 91t-91 61.5t-110 22.5h-132q-6 0 -6 -4v-255h128v-90zM159 0v311h-129v90h129v349h230q78 0 146 -29.5t118.5 -80.5t79.5 -119t29 -146t-29 -146.5t-79.5 -119t-118.5 -80 t-146 -29.5h-230z"/>
<glyph glyph-name="Ntilde" horiz-adv-x="648" unicode="Ñ" d="M39 0v749h111l364 -608q1 -3 3 -3q1 0 1 3v609h90v-750h-112l-362 605q-2 3 -3 3q-2 0 -2 -4v-604h-90zM157 874q0 34 25 51t56 17h7q17 0 33 -4.5t32 -10.5t31.5 -10.5t31.5 -4.5q24 0 40.5 4.5t27.5 10.5q12 7 21 16l29 -36q0 -18 -8 -31t-20 -21t-26 -12t-27 -4 q-19 0 -37 4.5t-35.5 10.5t-33 10.5t-30.5 4.5h-7q-18 0 -33 -5t-26 -11q-13 -7 -24 -15z"/>
<glyph glyph-name="Ograve" horiz-adv-x="833" unicode="Ò" d="M123 375q0 -60 23 -113.5t63 -93.5t93.5 -63t113.5 -23q61 0 114 23t93 63t63 93.5t23 113.5q0 61 -23 114t-63 93t-93 63t-114 23q-60 0 -113.5 -23t-93.5 -63t-63 -93t-23 -114zM33 375q0 79 30 149t82 122t121.5 82t149.5 30q79 0 149 -30t122 -82t82 -122t30 -149 q0 -80 -30 -149.5t-82 -121.5t-122 -82t-149 -30q-80 0 -149.5 30t-121.5 82t-82 121.5t-30 149.5zM501 754l-192 80l22 51l192 -79z"/>
<glyph glyph-name="Oacute" horiz-adv-x="833" unicode="Ó" d="M123 375q0 -60 23 -113.5t63 -93.5t93.5 -63t113.5 -23q61 0 114 23t93 63t63 93.5t23 113.5q0 61 -23 114t-63 93t-93 63t-114 23q-60 0 -113.5 -23t-93.5 -63t-63 -93t-23 -114zM33 375q0 79 30 149t82 122t121.5 82t149.5 30q79 0 149 -30t122 -82t82 -122t30 -149 q0 -80 -30 -149.5t-82 -121.5t-122 -82t-149 -30q-80 0 -149.5 30t-121.5 82t-82 121.5t-30 149.5zM309 806l192 79l22 -51l-192 -80z"/>
<glyph glyph-name="Ocircumflex" horiz-adv-x="833" unicode="Ô" d="M123 375q0 -60 23 -113.5t63 -93.5t93.5 -63t113.5 -23q61 0 114 23t93 63t63 93.5t23 113.5q0 61 -23 114t-63 93t-93 63t-114 23q-60 0 -113.5 -23t-93.5 -63t-63 -93t-23 -114zM33 375q0 79 30 149t82 122t121.5 82t149.5 30q79 0 149 -30t122 -82t82 -122t30 -149 q0 -80 -30 -149.5t-82 -121.5t-122 -82t-149 -30q-80 0 -149.5 30t-121.5 82t-82 121.5t-30 149.5zM534 825l-2 -56q-8 0 -40 13t-76 33q-44 -20 -75.5 -34t-39.5 -14l-2 56l117 49z"/>
<glyph glyph-name="Otilde" horiz-adv-x="833" unicode="Õ" d="M123 375q0 -60 23 -113.5t63 -93.5t93.5 -63t113.5 -23q61 0 114 23t93 63t63 93.5t23 113.5q0 61 -23 114t-63 93t-93 63t-114 23q-60 0 -113.5 -23t-93.5 -63t-63 -93t-23 -114zM33 375q0 79 30 149t82 122t121.5 82t149.5 30q79 0 149 -30t122 -82t82 -122t30 -149 q0 -80 -30 -149.5t-82 -121.5t-122 -82t-149 -30q-80 0 -149.5 30t-121.5 82t-82 121.5t-30 149.5zM249 874q0 34 25 51t56 17h7q17 0 33 -4.5t32 -10.5t31.5 -10.5t31.5 -4.5q24 0 40.5 4.5t27.5 10.5q12 7 21 16l29 -36q0 -18 -8 -31t-20 -21t-26 -12t-27 -4 q-19 0 -37 4.5t-35.5 10.5t-33 10.5t-30.5 4.5h-7q-18 0 -33 -5t-26 -11q-13 -7 -24 -15z"/>
<glyph glyph-name="Odieresis" horiz-adv-x="833" unicode="Ö" d="M123 375q0 -60 23 -113.5t63 -93.5t93.5 -63t113.5 -23q61 0 114 23t93 63t63 93.5t23 113.5q0 61 -23 114t-63 93t-93 63t-114 23q-60 0 -113.5 -23t-93.5 -63t-63 -93t-23 -114zM33 375q0 79 30 149t82 122t121.5 82t149.5 30q79 0 149 -30t122 -82t82 -122t30 -149 q0 -80 -30 -149.5t-82 -121.5t-122 -82t-149 -30q-80 0 -149.5 30t-121.5 82t-82 121.5t-30 149.5zM495 784q-18 0 -30.5 12.5t-12.5 30.5q0 17 13 29t30 12q16 0 29 -12.5t13 -28.5q0 -17 -12.5 -30t-29.5 -13zM338 784q-18 0 -30.5 12.5t-12.5 30.5q0 17 13 29t30 12 q16 0 29 -12.5t13 -28.5q0 -17 -12.5 -30t-29.5 -13z"/>
<glyph glyph-name="multiply" horiz-adv-x="505" unicode="×" d="M407 55l-154 155l-156 -156l-44 44l156 155l-152 152l44 44l152 -152l155 156l44 -44l-156 -156l155 -154z"/>
<glyph glyph-name="Oslash" horiz-adv-x="828" unicode="Ø" d="M121 375q0 -46 13.5 -88t37.5 -77t57.5 -62.5t73.5 -43.5l162 559q-12 2 -25 3.5t-26 1.5q-60 0 -113.5 -23t-93.5 -63t-63 -93t-23 -114zM414 82q61 0 114 23t93 63t63 93.5t23 113.5q0 47 -14 89.5t-39 78t-59.5 62.5t-76.5 43l-163 -560q28 -6 59 -6zM259 -49l18 66 q-54 21 -99 56.5t-78 82t-51 102t-18 117.5q0 79 30 149t82 122t121.5 82t149.5 30q38 0 76 -8l17 54h59l-22 -69q55 -20 101.5 -55.5t80 -82.5t52.5 -103.5t19 -118.5q0 -80 -30 -149.5t-82 -121.5t-122 -82t-149 -30q-22 0 -43 2.5t-41 6.5l-13 -49z"/>
<glyph glyph-name="Ugrave" horiz-adv-x="521" unicode="Ù" d="M37 750h90v-527q0 -29 10 -54.5t27.5 -45t42 -30.5t53.5 -11q28 0 52.5 10.5t42.5 29t28 43.5t10 53v532h90v-539q0 -45 -18 -85t-48.5 -70t-71 -47t-85.5 -17q-46 0 -86.5 17.5t-71 47.5t-48 70.5t-17.5 86.5v536zM345 754l-192 80l22 51l192 -79z"/>
<glyph glyph-name="Uacute" horiz-adv-x="521" unicode="Ú" d="M37 750h90v-527q0 -29 10 -54.5t27.5 -45t42 -30.5t53.5 -11q28 0 52.5 10.5t42.5 29t28 43.5t10 53v532h90v-539q0 -45 -18 -85t-48.5 -70t-71 -47t-85.5 -17q-46 0 -86.5 17.5t-71 47.5t-48 70.5t-17.5 86.5v536zM153 806l192 79l22 -51l-192 -80z"/>
<glyph glyph-name="Ucircumflex" horiz-adv-x="521" unicode="Û" d="M37 750h90v-527q0 -29 10 -54.5t27.5 -45t42 -30.5t53.5 -11q28 0 52.5 10.5t42.5 29t28 43.5t10 53v532h90v-539q0 -45 -18 -85t-48.5 -70t-71 -47t-85.5 -17q-46 0 -86.5 17.5t-71 47.5t-48 70.5t-17.5 86.5v536zM378 825l-2 -56q-8 0 -40 13t-76 33q-44 -20 -75.5 -34 t-39.5 -14l-2 56l117 49z"/>
<glyph glyph-name="Udieresis" horiz-adv-x="521" unicode="Ü" d="M37 750h90v-527q0 -29 10 -54.5t27.5 -45t42 -30.5t53.5 -11q28 0 52.5 10.5t42.5 29t28 43.5t10 53v532h90v-539q0 -45 -18 -85t-48.5 -70t-71 -47t-85.5 -17q-46 0 -86.5 17.5t-71 47.5t-48 70.5t-17.5 86.5v536zM339 784q-18 0 -30.5 12.5t-12.5 30.5q0 17 13 29 t30 12q16 0 29 -12.5t13 -28.5q0 -17 -12.5 -30t-29.5 -13zM182 784q-18 0 -30.5 12.5t-12.5 30.5q0 17 13 29t30 12q16 0 29 -12.5t13 -28.5q0 -17 -12.5 -30t-29.5 -13z"/>
<glyph glyph-name="Yacute" horiz-adv-x="523" unicode="Ý" d="M217 0v271l-209 479h99l151 -347q1 -4 4 -4t4 4l150 347h98l-207 -479v-271h-90zM154 806l192 79l22 -51l-192 -80z"/>
<glyph glyph-name="Thorn" horiz-adv-x="461" unicode="Þ" d="M137 523q-9 0 -9 -7v-265q1 -5 9 -5h69q39 0 63.5 16.5t38.5 39t19 46.5t5 40t-5 39t-19 44.5t-38.5 36.5t-63.5 15h-69zM38 0v750h90v-138h76q48 0 88 -17.5t69 -47.5t45 -71t16 -89t-16 -89.5t-45 -73t-69 -49.5t-88 -18h-70q-6 0 -6 -6v-151h-90z"/>
<glyph glyph-name="germandbls" horiz-adv-x="516" unicode="ß" d="M177 422h9.5t19 0.5t19 0.5h9.5q31 4 51 18t31 31.5t15.5 36.5t4.5 34q0 16 -5 36.5t-19 38.5t-38.5 30.5t-63.5 12.5h-73q-9 0 -9 -9v-652h-90v750h170q48 0 88 -14.5t69 -41t45 -64t16 -84.5q0 -32 -5.5 -55t-13.5 -40t-18.5 -29.5t-20.5 -24.5q54 -28 81.5 -78 t27.5 -111q0 -48 -16 -86.5t-45 -65.5t-69 -41.5t-88 -14.5h-80v89h82q39 0 63.5 13t38.5 31.5t19 39t5 36.5q0 28 -13 51t-34 39t-48 24.5t-54 8.5h-61v90z"/>
<glyph glyph-name="agrave" d="M118 251q0 -36 13.5 -68t36.5 -55t55 -36.5t68 -13.5t67.5 13.5t54.5 36.5t36.5 55t13.5 68t-13.5 67.5t-36.5 54.5t-54.5 36.5t-67.5 13.5t-68 -13.5t-55 -36.5t-36.5 -54.5t-13.5 -67.5zM463 501h85v-501l-85 37v21q-35 -31 -78.5 -48.5t-93.5 -17.5q-54 0 -101 20 t-82.5 55.5t-55.5 82.5t-20 101q0 53 20 100t55.5 82t82.5 55t101 20q50 0 93.5 -17.5t78.5 -48.5v59zM375 554l-192 80l22 51l192 -79z" unicode="à"/>
<glyph glyph-name="aacute" d="M118 251q0 -36 13.5 -68t36.5 -55t55 -36.5t68 -13.5t67.5 13.5t54.5 36.5t36.5 55t13.5 68t-13.5 67.5t-36.5 54.5t-54.5 36.5t-67.5 13.5t-68 -13.5t-55 -36.5t-36.5 -54.5t-13.5 -67.5zM463 501h85v-501l-85 37v21q-35 -31 -78.5 -48.5t-93.5 -17.5q-54 0 -101 20 t-82.5 55.5t-55.5 82.5t-20 101q0 53 20 100t55.5 82t82.5 55t101 20q50 0 93.5 -17.5t78.5 -48.5v59zM183 606l192 79l22 -51l-192 -80z" unicode="á"/>
<glyph glyph-name="acircumflex" d="M118 251q0 -36 13.5 -68t36.5 -55t55 -36.5t68 -13.5t67.5 13.5t54.5 36.5t36.5 55t13.5 68t-13.5 67.5t-36.5 54.5t-54.5 36.5t-67.5 13.5t-68 -13.5t-55 -36.5t-36.5 -54.5t-13.5 -67.5zM463 501h85v-501l-85 37v21q-35 -31 -78.5 -48.5t-93.5 -17.5q-54 0 -101 20 t-82.5 55.5t-55.5 82.5t-20 101q0 53 20 100t55.5 82t82.5 55t101 20q50 0 93.5 -17.5t78.5 -48.5v59zM408 625l-2 -56q-8 0 -40 13t-76 33q-44 -20 -75.5 -34t-39.5 -14l-2 56l117 49z" unicode="â"/>
<glyph glyph-name="atilde" d="M118 251q0 -36 13.5 -68t36.5 -55t55 -36.5t68 -13.5t67.5 13.5t54.5 36.5t36.5 55t13.5 68t-13.5 67.5t-36.5 54.5t-54.5 36.5t-67.5 13.5t-68 -13.5t-55 -36.5t-36.5 -54.5t-13.5 -67.5zM463 501h85v-501l-85 37v21q-35 -31 -78.5 -48.5t-93.5 -17.5q-54 0 -101 20 t-82.5 55.5t-55.5 82.5t-20 101q0 53 20 100t55.5 82t82.5 55t101 20q50 0 93.5 -17.5t78.5 -48.5v59zM123 674q0 34 25 51t56 17h7q17 0 33 -4.5t32 -10.5t31.5 -10.5t31.5 -4.5q24 0 40.5 4.5t27.5 10.5q12 7 21 16l29 -36q0 -18 -8 -31t-20 -21t-26 -12t-27 -4 q-19 0 -37 4.5t-35.5 10.5t-33 10.5t-30.5 4.5h-7q-18 0 -33 -5t-26 -11q-13 -7 -24 -15z" unicode="ã"/>
<glyph glyph-name="adieresis" d="M118 251q0 -36 13.5 -68t36.5 -55t55 -36.5t68 -13.5t67.5 13.5t54.5 36.5t36.5 55t13.5 68t-13.5 67.5t-36.5 54.5t-54.5 36.5t-67.5 13.5t-68 -13.5t-55 -36.5t-36.5 -54.5t-13.5 -67.5zM463 501h85v-501l-85 37v21q-35 -31 -78.5 -48.5t-93.5 -17.5q-54 0 -101 20 t-82.5 55.5t-55.5 82.5t-20 101q0 53 20 100t55.5 82t82.5 55t101 20q50 0 93.5 -17.5t78.5 -48.5v59zM369 584q-18 0 -30.5 12.5t-12.5 30.5q0 17 13 29t30 12q16 0 29 -12.5t13 -28.5q0 -17 -12.5 -30t-29.5 -13zM212 584q-18 0 -30.5 12.5t-12.5 30.5q0 17 13 29t30 12 q16 0 29 -12.5t13 -28.5q0 -17 -12.5 -30t-29.5 -13z" unicode="ä"/>
<glyph glyph-name="aring" d="M118 251q0 -36 13.5 -68t36.5 -55t55 -36.5t68 -13.5t67.5 13.5t54.5 36.5t36.5 55t13.5 68t-13.5 67.5t-36.5 54.5t-54.5 36.5t-67.5 13.5t-68 -13.5t-55 -36.5t-36.5 -54.5t-13.5 -67.5zM463 501h85v-501l-85 37v21q-35 -31 -78.5 -48.5t-93.5 -17.5q-54 0 -101 20 t-82.5 55.5t-55.5 82.5t-20 101q0 53 20 100t55.5 82t82.5 55t101 20q50 0 93.5 -17.5t78.5 -48.5v59zM290 575q10 0 16.5 6t6.5 17q0 10 -6.5 16.5t-16.5 6.5q-11 0 -17 -6.5t-6 -16.5q0 -23 23 -23zM290 557q-18 0 -29.5 12t-11.5 29q0 18 12 30t29 12t29.5 -12.5 t12.5 -29.5t-12 -29t-30 -12z" unicode="å"/>
<glyph glyph-name="ae" horiz-adv-x="972" unicode="æ" d="M722 423q-32 0 -59 -10t-48.5 -28t-36.5 -42.5t-21 -53.5h303q0 23 -10 47t-28 43.5t-43.5 31.5t-56.5 12zM726 -8q-54 0 -101 20q-43 18 -77 50v-62l-85 37v21q-35 -31 -78.5 -48.5t-93.5 -17.5q-54 0 -101 20t-82.5 55.5t-55.5 82.5t-20 101q0 53 20 100t55.5 82 t82.5 55t101 20q50 0 93.5 -17.5t78.5 -48.5v59h85v-61q32 30 74 48q46 20 100 20q52 0 94 -19.5t71.5 -53t45.5 -77.5t16 -93v-46h-394q6 -31 21 -57t37.5 -44.5t51.5 -29t61 -10.5q34 0 64.5 11t52.5 34l62 -58q-35 -35 -81 -54t-98 -19zM118 251q0 -36 13.5 -68t36.5 -55 t55 -36.5t68 -13.5t67.5 13.5t54.5 36.5t36.5 55t13.5 68t-13.5 67.5t-36.5 54.5t-54.5 36.5t-67.5 13.5t-68 -13.5t-55 -36.5t-36.5 -54.5t-13.5 -67.5z"/>
<glyph glyph-name="ccedilla" horiz-adv-x="556" unicode="ç" d="M291 78q48 0 89 22.5t59 61.5l81 -28q-15 -33 -38 -59t-53 -44.5t-65 -28.5t-73 -10q-54 0 -101 20t-82.5 55.5t-55.5 82.5t-20 101q0 53 20 100t55.5 82t82.5 55t101 20q63 0 116 -30t91 -75l-67 -51q-22 33 -59 52t-81 19q-36 0 -68 -13.5t-55 -36.5t-36.5 -54.5 t-13.5 -67.5t13.5 -68t36.5 -55t55 -36.5t68 -13.5zM309 0l-39 -51q5 0 11 1.5t22 1.5q32 0 53.5 -20t21.5 -56q0 -24 -10.5 -42t-26.5 -29.5t-36 -17t-38 -5.5q-19 0 -35 7.5t-28 17.5q-14 11 -27 25l28 22q7 -5 18 -9q9 -4 21.5 -6.5t28.5 -2.5t31 10.5t15 28.5 q0 20 -12 30t-25 10q-6 0 -17 -1.5t-22 -1.5l-29 15l52 73h43z"/>
<glyph glyph-name="egrave" horiz-adv-x="542" unicode="è" d="M287 423q-32 0 -59 -10t-48.5 -28t-36.5 -42.5t-21 -53.5h303q0 23 -10 47t-28 43.5t-43.5 31.5t-56.5 12zM291 -8q-54 0 -101 20t-82.5 55.5t-55.5 82.5t-20 101q0 53 19.5 100t54 82t81 55t100.5 20q52 0 94 -19.5t71.5 -53t45.5 -77.5t16 -93v-46h-394q6 -31 21 -57 t37.5 -44.5t51.5 -29t61 -10.5q34 0 64.5 11t52.5 34l62 -58q-35 -35 -81 -54t-98 -19zM356 554l-192 80l22 51l192 -79z"/>
<glyph glyph-name="eacute" horiz-adv-x="542" unicode="é" d="M287 423q-32 0 -59 -10t-48.5 -28t-36.5 -42.5t-21 -53.5h303q0 23 -10 47t-28 43.5t-43.5 31.5t-56.5 12zM291 -8q-54 0 -101 20t-82.5 55.5t-55.5 82.5t-20 101q0 53 19.5 100t54 82t81 55t100.5 20q52 0 94 -19.5t71.5 -53t45.5 -77.5t16 -93v-46h-394q6 -31 21 -57 t37.5 -44.5t51.5 -29t61 -10.5q34 0 64.5 11t52.5 34l62 -58q-35 -35 -81 -54t-98 -19zM164 606l192 79l22 -51l-192 -80z"/>
<glyph glyph-name="ecircumflex" horiz-adv-x="542" unicode="ê" d="M287 423q-32 0 -59 -10t-48.5 -28t-36.5 -42.5t-21 -53.5h303q0 23 -10 47t-28 43.5t-43.5 31.5t-56.5 12zM291 -8q-54 0 -101 20t-82.5 55.5t-55.5 82.5t-20 101q0 53 19.5 100t54 82t81 55t100.5 20q52 0 94 -19.5t71.5 -53t45.5 -77.5t16 -93v-46h-394q6 -31 21 -57 t37.5 -44.5t51.5 -29t61 -10.5q34 0 64.5 11t52.5 34l62 -58q-35 -35 -81 -54t-98 -19zM388 625l-2 -56q-8 0 -40 13t-76 33q-44 -20 -75.5 -34t-39.5 -14l-2 56l117 49z"/>
<glyph glyph-name="edieresis" horiz-adv-x="542" unicode="ë" d="M287 423q-32 0 -59 -10t-48.5 -28t-36.5 -42.5t-21 -53.5h303q0 23 -10 47t-28 43.5t-43.5 31.5t-56.5 12zM291 -8q-54 0 -101 20t-82.5 55.5t-55.5 82.5t-20 101q0 53 19.5 100t54 82t81 55t100.5 20q52 0 94 -19.5t71.5 -53t45.5 -77.5t16 -93v-46h-394q6 -31 21 -57 t37.5 -44.5t51.5 -29t61 -10.5q34 0 64.5 11t52.5 34l62 -58q-35 -35 -81 -54t-98 -19zM350 584q-18 0 -30.5 12.5t-12.5 30.5q0 17 13 29t30 12q16 0 29 -12.5t13 -28.5q0 -17 -12.5 -30t-29.5 -13zM193 584q-18 0 -30.5 12.5t-12.5 30.5q0 17 13 29t30 12q16 0 29 -12.5 t13 -28.5q0 -17 -12.5 -30t-29.5 -13z"/>
<glyph glyph-name="igrave" horiz-adv-x="164" unicode="ì" d="M39 501h85v-501h-85v501zM168 554l-192 80l22 51l192 -79z"/>
<glyph glyph-name="iacute" horiz-adv-x="164" unicode="í" d="M39 501h85v-501h-85v501zM-24 606l192 79l22 -51l-192 -80z"/>
<glyph glyph-name="icircumflex" horiz-adv-x="164" unicode="î" d="M39 501h85v-501h-85v501zM201 625l-2 -56q-8 0 -40 13t-76 33q-44 -20 -75.5 -34t-39.5 -14l-2 56l117 49z"/>
<glyph glyph-name="idieresis" horiz-adv-x="164" unicode="ï" d="M39 501h85v-501h-85v501zM162 584q-18 0 -30.5 12.5t-12.5 30.5q0 17 13 29t30 12q16 0 29 -12.5t13 -28.5q0 -17 -12.5 -30t-29.5 -13zM5 584q-18 0 -30.5 12.5t-12.5 30.5q0 17 13 29t30 12q16 0 29 -12.5t13 -28.5q0 -17 -12.5 -30t-29.5 -13z"/>
<glyph glyph-name="eth" horiz-adv-x="571" unicode="ð" d="M285 415q-35 0 -65 -13t-52.5 -35.5t-35.5 -53t-13 -65.5q0 -36 12.5 -66t35 -52.5t53 -35t65.5 -12.5q36 0 66.5 12.5t53 35t35 52.5t12.5 66t-12.5 66.5t-35 53t-53 35t-66.5 12.5zM370 752l50 -69l-74 -53l162 -253q34 -62 34 -129q0 -54 -19.5 -101t-54 -81.5 t-81.5 -54t-103 -19.5q-53 0 -99.5 19.5t-81 54t-54.5 81.5t-20 101q0 61 21.5 108.5t57 80.5t81.5 50.5t96 17.5q19 0 36 -3l-48 74l-71 -49l-50 69l75 52l-44 65l78 47l39 -58z"/>
<glyph glyph-name="ntilde" horiz-adv-x="513" unicode="ñ" d="M389 291q0 27 -11 51t-29 42t-42 29t-51 11q-26 0 -50 -6t-42.5 -20.5t-29.5 -39.5t-11 -62v-296h-85v500l85 -35q55 43 132 43q43 0 83 -16t70 -44t48 -65t18 -80v-303h-85v291zM89 674q0 34 25 51t56 17h7q17 0 33 -4.5t32 -10.5t31.5 -10.5t31.5 -4.5q24 0 40.5 4.5 t27.5 10.5q12 7 21 16l29 -36q0 -18 -8 -31t-20 -21t-26 -12t-27 -4q-19 0 -37 4.5t-35.5 10.5t-33 10.5t-30.5 4.5h-7q-18 0 -33 -5t-26 -11q-13 -7 -24 -15z"/>
<glyph glyph-name="ograve" d="M32 251q0 53 20 100t55.5 82t82.5 55t101 20q53 0 100 -20t82 -55t55 -82t20 -100q0 -54 -20 -101t-55 -82.5t-82 -55.5t-100 -20q-54 0 -101 20t-82.5 55.5t-55.5 82.5t-20 101zM118 251q0 -36 13.5 -68t36.5 -55t55 -36.5t68 -13.5t67.5 13.5t54.5 36.5t36.5 55 t13.5 68t-13.5 67.5t-36.5 54.5t-54.5 36.5t-67.5 13.5t-68 -13.5t-55 -36.5t-36.5 -54.5t-13.5 -67.5zM375 554l-192 80l22 51l192 -79z" unicode="ò"/>
<glyph glyph-name="oacute" d="M32 251q0 53 20 100t55.5 82t82.5 55t101 20q53 0 100 -20t82 -55t55 -82t20 -100q0 -54 -20 -101t-55 -82.5t-82 -55.5t-100 -20q-54 0 -101 20t-82.5 55.5t-55.5 82.5t-20 101zM118 251q0 -36 13.5 -68t36.5 -55t55 -36.5t68 -13.5t67.5 13.5t54.5 36.5t36.5 55 t13.5 68t-13.5 67.5t-36.5 54.5t-54.5 36.5t-67.5 13.5t-68 -13.5t-55 -36.5t-36.5 -54.5t-13.5 -67.5zM183 606l192 79l22 -51l-192 -80z" unicode="ó"/>
<glyph glyph-name="ocircumflex" d="M32 251q0 53 20 100t55.5 82t82.5 55t101 20q53 0 100 -20t82 -55t55 -82t20 -100q0 -54 -20 -101t-55 -82.5t-82 -55.5t-100 -20q-54 0 -101 20t-82.5 55.5t-55.5 82.5t-20 101zM118 251q0 -36 13.5 -68t36.5 -55t55 -36.5t68 -13.5t67.5 13.5t54.5 36.5t36.5 55 t13.5 68t-13.5 67.5t-36.5 54.5t-54.5 36.5t-67.5 13.5t-68 -13.5t-55 -36.5t-36.5 -54.5t-13.5 -67.5zM408 625l-2 -56q-8 0 -40 13t-76 33q-44 -20 -75.5 -34t-39.5 -14l-2 56l117 49z" unicode="ô"/>
<glyph glyph-name="otilde" d="M32 251q0 53 20 100t55.5 82t82.5 55t101 20q53 0 100 -20t82 -55t55 -82t20 -100q0 -54 -20 -101t-55 -82.5t-82 -55.5t-100 -20q-54 0 -101 20t-82.5 55.5t-55.5 82.5t-20 101zM118 251q0 -36 13.5 -68t36.5 -55t55 -36.5t68 -13.5t67.5 13.5t54.5 36.5t36.5 55 t13.5 68t-13.5 67.5t-36.5 54.5t-54.5 36.5t-67.5 13.5t-68 -13.5t-55 -36.5t-36.5 -54.5t-13.5 -67.5zM123 674q0 34 25 51t56 17h7q17 0 33 -4.5t32 -10.5t31.5 -10.5t31.5 -4.5q24 0 40.5 4.5t27.5 10.5q12 7 21 16l29 -36q0 -18 -8 -31t-20 -21t-26 -12t-27 -4 q-19 0 -37 4.5t-35.5 10.5t-33 10.5t-30.5 4.5h-7q-18 0 -33 -5t-26 -11q-13 -7 -24 -15z" unicode="õ"/>
<glyph glyph-name="odieresis" d="M32 251q0 53 20 100t55.5 82t82.5 55t101 20q53 0 100 -20t82 -55t55 -82t20 -100q0 -54 -20 -101t-55 -82.5t-82 -55.5t-100 -20q-54 0 -101 20t-82.5 55.5t-55.5 82.5t-20 101zM118 251q0 -36 13.5 -68t36.5 -55t55 -36.5t68 -13.5t67.5 13.5t54.5 36.5t36.5 55 t13.5 68t-13.5 67.5t-36.5 54.5t-54.5 36.5t-67.5 13.5t-68 -13.5t-55 -36.5t-36.5 -54.5t-13.5 -67.5zM369 584q-18 0 -30.5 12.5t-12.5 30.5q0 17 13 29t30 12q16 0 29 -12.5t13 -28.5q0 -17 -12.5 -30t-29.5 -13zM212 584q-18 0 -30.5 12.5t-12.5 30.5q0 17 13 29t30 12 q16 0 29 -12.5t13 -28.5q0 -17 -12.5 -30t-29.5 -13z" unicode="ö"/>
<glyph glyph-name="divide" horiz-adv-x="544" unicode="÷" d="M271 59q-18 0 -30.5 12.5t-12.5 30.5q0 17 13 29t30 12q16 0 29 -12.5t13 -28.5q0 -17 -12.5 -30t-29.5 -13zM271 368q-18 0 -30.5 12.5t-12.5 30.5q0 17 13 29t30 12q16 0 29 -12.5t13 -28.5q0 -17 -12.5 -30t-29.5 -13zM520 223h-497v66h497v-66z"/>
<glyph glyph-name="oslash" horiz-adv-x="576" unicode="ø" d="M116 251q0 -53 26.5 -94t69.5 -62l95 327q-5 0 -9 0.5t-9 0.5q-36 0 -68 -13.5t-55 -36.5t-36.5 -54.5t-13.5 -67.5zM289 78q36 0 67.5 13.5t54.5 36.5t36.5 55t13.5 68q0 53 -28 95t-73 62l-95 -329q6 -1 12 -1h12zM169 -51l19 63q-35 15 -64 39t-50 55t-32.5 67.5 t-11.5 77.5q0 53 20 100t55.5 82t82.5 55t101 20q11 0 21 -1t21 -3l15 50h58l-20 -64q36 -14 65.5 -38t51 -55t33.5 -68.5t12 -77.5q0 -54 -20 -101t-55 -82.5t-82 -55.5t-100 -20q-23 0 -48 5l-17 -55l-56 2q0 2 0.5 2.5t0.5 2.5z"/>
<glyph glyph-name="ugrave" horiz-adv-x="508" unicode="ù" d="M121 211q0 -27 11 -51t29 -42t42 -29t51 -11q26 0 50 6t42.5 20.5t29.5 39t11 62.5v293h85v-499l-85 37q-27 -21 -60.5 -33t-71.5 -12q-44 0 -83.5 16.5t-69.5 44.5t-48 65.5t-18 80.5v300h85v-288zM339 554l-192 80l22 51l192 -79z"/>
<glyph glyph-name="uacute" horiz-adv-x="508" unicode="ú" d="M121 211q0 -27 11 -51t29 -42t42 -29t51 -11q26 0 50 6t42.5 20.5t29.5 39t11 62.5v293h85v-499l-85 37q-27 -21 -60.5 -33t-71.5 -12q-44 0 -83.5 16.5t-69.5 44.5t-48 65.5t-18 80.5v300h85v-288zM147 606l192 79l22 -51l-192 -80z"/>
<glyph glyph-name="ucircumflex" horiz-adv-x="508" unicode="û" d="M121 211q0 -27 11 -51t29 -42t42 -29t51 -11q26 0 50 6t42.5 20.5t29.5 39t11 62.5v293h85v-499l-85 37q-27 -21 -60.5 -33t-71.5 -12q-44 0 -83.5 16.5t-69.5 44.5t-48 65.5t-18 80.5v300h85v-288zM371 625l-2 -56q-8 0 -40 13t-76 33q-44 -20 -75.5 -34t-39.5 -14 l-2 56l117 49z"/>
<glyph glyph-name="udieresis" horiz-adv-x="508" unicode="ü" d="M121 211q0 -27 11 -51t29 -42t42 -29t51 -11q26 0 50 6t42.5 20.5t29.5 39t11 62.5v293h85v-499l-85 37q-27 -21 -60.5 -33t-71.5 -12q-44 0 -83.5 16.5t-69.5 44.5t-48 65.5t-18 80.5v300h85v-288zM333 584q-18 0 -30.5 12.5t-12.5 30.5q0 17 13 29t30 12q16 0 29 -12.5 t13 -28.5q0 -17 -12.5 -30t-29.5 -13zM176 584q-18 0 -30.5 12.5t-12.5 30.5q0 17 13 29t30 12q16 0 29 -12.5t13 -28.5q0 -17 -12.5 -30t-29.5 -13z"/>
<glyph glyph-name="yacute" horiz-adv-x="438" unicode="ý" d="M187 -206h-88l76 210l-173 496h91l126 -372l129 374h89zM112 606l192 79l22 -51l-192 -80z"/>
<glyph glyph-name="thorn" horiz-adv-x="593" unicode="þ" d="M468 250q0 36 -13.5 68t-36.5 55t-55 36.5t-68 13.5t-67.5 -13.5t-54.5 -36.5t-36.5 -55t-13.5 -68t13.5 -67.5t36.5 -54.5t54.5 -36.5t67.5 -13.5t68 13.5t55 36.5t36.5 54.5t13.5 67.5zM123 443q34 31 78 48.5t94 17.5q54 0 101 -20t82.5 -55.5t55.5 -82.5t20 -101 q0 -53 -20 -100t-55.5 -82t-82.5 -55t-101 -20q-50 0 -94 17.5t-78 48.5v-262h-85v904h85v-258z"/>
<glyph glyph-name="dotlessi" horiz-adv-x="164" unicode="ı" d="M39 501h85v-501h-85v501z"/>
<glyph glyph-name="OE" horiz-adv-x="1110" unicode="Œ" d="M1079 0h-368v130q-11 -14 -24 -26q-52 -52 -122 -82t-149 -30q-80 0 -149.5 30t-121.5 82t-82 121.5t-30 149.5q0 79 30 149t82 122t121.5 82t149.5 30q79 0 149 -30t122 -82q13 -13 24 -26v130h368v-90h-272q-6 0 -6 -4v-230q0 -4 6 -4h272v-90h-272q-6 0 -6 -5v-231 q0 -6 6 -6h272v-90zM123 375q0 -60 23 -113.5t63 -93.5t93.5 -63t113.5 -23q61 0 114 23t93 63t63 93.5t23 113.5q0 61 -23 114t-63 93t-93 63t-114 23q-60 0 -113.5 -23t-93.5 -63t-63 -93t-23 -114z"/>
<glyph glyph-name="oe" horiz-adv-x="969" unicode="œ" d="M721 423q-32 0 -59 -10t-48.5 -28t-36.5 -42.5t-21 -53.5h303q0 23 -10 47t-28 43.5t-43.5 31.5t-56.5 12zM725 -8q-54 0 -101 20q-46 20 -82 56q-20 20 -35 42q-15 -22 -34 -42q-35 -36 -82 -56t-100 -20q-54 0 -101 20t-82.5 55.5t-55.5 82.5t-20 101q0 53 20 100 t55.5 82t82.5 55t101 20q53 0 100 -20t82 -55q19 -19 34 -41q15 22 33 41q34 35 80.5 55t100.5 20q52 0 94 -19.5t71.5 -53t45.5 -77.5t16 -93v-46h-394q6 -31 21 -57t37.5 -44.5t51.5 -29t61 -10.5q34 0 64.5 11t52.5 34l62 -58q-35 -35 -81 -54t-98 -19zM118 251 q0 -36 13.5 -68t36.5 -55t55 -36.5t68 -13.5t67.5 13.5t54.5 36.5t36.5 55t13.5 68t-13.5 67.5t-36.5 54.5t-54.5 36.5t-67.5 13.5t-68 -13.5t-55 -36.5t-36.5 -54.5t-13.5 -67.5z"/>
<glyph glyph-name="Scaron" horiz-adv-x="472" unicode="Š" d="M123 141q14 -29 41.5 -44.5t65.5 -15.5q23 0 45 9.5t39 26t27.5 39t10.5 47.5q0 34 -17.5 60t-44.5 43q-36 23 -78 41t-75 36q-56 31 -80 71t-24 100q0 42 16.5 79t44.5 65t65 44t78 16q56 0 103 -28t73 -73l-80 -41q-13 24 -39.5 38.5t-55.5 14.5q-23 0 -43.5 -9 t-36.5 -24.5t-25.5 -35.5t-9.5 -41q0 -41 15 -62t38 -34q13 -7 33 -16.5t42 -20t43 -21t37 -19.5q55 -32 81 -78t26 -106q0 -43 -17 -81.5t-45.5 -67t-67 -45t-80.5 -16.5q-40 0 -73 11.5t-58 30.5t-41 43t-20 49zM235 767l-117 49l2 56q8 0 39.5 -14t75.5 -34q44 20 76 33 t40 13l2 -56z"/>
<glyph glyph-name="scaron" horiz-adv-x="342" unicode="š" d="M309 132q0 -31 -11.5 -56.5t-31 -44t-46 -29t-57.5 -10.5q-20 0 -40 5.5t-38 15.5t-31 24t-19 31l68 47q5 -6 10.5 -12.5t12 -12t16.5 -9.5t24 -4q23 0 40.5 16.5t17.5 39.5q0 52 -105 113q-36 21 -60 47.5t-24 72.5q0 28 11.5 54t31 45.5t45 31t54.5 11.5q17 0 35 -5 t34 -13.5t29 -20t21 -24.5l-65 -57l-23 23t-35 12q-24 0 -38.5 -14t-14.5 -37q0 -17 14 -30.5t35 -27t45.5 -29t45.5 -36.5t35 -49t14 -68zM170 567l-117 49l2 56q8 0 39.5 -14t75.5 -34q44 20 76 33t40 13l2 -56z"/>
<glyph glyph-name="Ydieresis" horiz-adv-x="523" unicode="Ÿ" d="M217 0v271l-209 479h99l151 -347q1 -4 4 -4t4 4l150 347h98l-207 -479v-271h-90zM340 784q-18 0 -30.5 12.5t-12.5 30.5q0 17 13 29t30 12q16 0 29 -12.5t13 -28.5q0 -17 -12.5 -30t-29.5 -13zM183 784q-18 0 -30.5 12.5t-12.5 30.5q0 17 13 29t30 12q16 0 29 -12.5 t13 -28.5q0 -17 -12.5 -30t-29.5 -13z"/>
<glyph glyph-name="circumflex" horiz-adv-x="293" unicode="ˆ" d="M264 625l-2 -56q-8 0 -40 13t-76 33q-44 -20 -75.5 -34t-39.5 -14l-2 56l117 49z"/>
<glyph glyph-name="caron" horiz-adv-x="292" unicode="ˇ" d="M145 567l-117 49l2 56q8 0 39.5 -14t75.5 -34q44 20 76 33t40 13l2 -56z"/>
<glyph glyph-name="ring" horiz-adv-x="151" unicode="˚" d="M75 575q10 0 16.5 6t6.5 17q0 10 -6.5 16.5t-16.5 6.5q-11 0 -17 -6.5t-6 -16.5q0 -23 23 -23zM75 557q-18 0 -29.5 12t-11.5 29q0 18 12 30t29 12t29.5 -12.5t12.5 -29.5t-12 -29t-30 -12z"/>
<glyph glyph-name="tilde" horiz-adv-x="407" unicode="˜" d="M36 674q0 34 25 51t56 17h7q17 0 33 -4.5t32 -10.5t31.5 -10.5t31.5 -4.5q24 0 40.5 4.5t27.5 10.5q12 7 21 16l29 -36q0 -18 -8 -31t-20 -21t-26 -12t-27 -4q-19 0 -37 4.5t-35.5 10.5t-33 10.5t-30.5 4.5h-7q-18 0 -33 -5t-26 -11q-13 -7 -24 -15z"/>
<glyph glyph-name="endash" horiz-adv-x="576" unicode="–" d="M538 254h-500v66h500v-66z"/>
<glyph glyph-name="emdash" horiz-adv-x="753" unicode="—" d="M714 254h-676v66h676v-66z"/>
<glyph glyph-name="quoteleft" horiz-adv-x="134" unicode="‘" d="M18 744l81 6l8 -196h-31z"/>
<glyph glyph-name="quotesinglbase" horiz-adv-x="159" unicode="‚" d="M67 -78l-31 1l8 195l81 -6z"/>
<glyph glyph-name="quotedblleft" horiz-adv-x="265" unicode="“" d="M28 744l81 6l8 -196h-31zM144 744l81 6l8 -196h-31z"/>
<glyph glyph-name="quotedblright" horiz-adv-x="275" unicode="”" d="M183 554h-31l8 196l81 -6zM67 554h-31l8 196l81 -6z"/>
<glyph glyph-name="dagger" horiz-adv-x="617" unicode="†" d="M22 425v85h245v240h85v-240h242v-85h-242v-609h-85v609h-245z"/>
<glyph glyph-name="daggerdbl" horiz-adv-x="619" unicode="‡" d="M23 425v85h245v239h85v-239h245v-85h-245v-112h245v-85h-245v-414h-85v414h-245v85h245v112h-245z"/>
<glyph glyph-name="ellipsis" horiz-adv-x="598" unicode="…" d="M518 -4q-18 0 -30.5 12.5t-12.5 30.5q0 17 13 29t30 12q16 0 29 -12.5t13 -28.5q0 -17 -12.5 -30t-29.5 -13zM299 -4q-18 0 -30.5 12.5t-12.5 30.5q0 17 13 29t30 12q16 0 29 -12.5t13 -28.5q0 -17 -12.5 -30t-29.5 -13zM80 -4q-18 0 -30.5 12.5t-12.5 30.5q0 17 13 29 t30 12q16 0 29 -12.5t13 -28.5q0 -17 -12.5 -30t-29.5 -13z"/>
<glyph glyph-name="perthousand" horiz-adv-x="1257" unicode="‰" d="M203 19l402 739l46 -30l-401 -735zM864 180q0 37 14 70q14 34 38 58t58 38q33 14 70 14t70 -14q34 -14 58 -38t38 -58q14 -33 14 -70t-14 -70q-14 -34 -38 -58t-58 -38q-33 -14 -70 -14t-70 14q-34 14 -58 38t-38 58q-14 33 -14 70zM935 180q1 -23 9 -43q8 -21 22 -35 t35 -22q20 -8 43 -9q23 1 43 9q21 8 35 22t22 35q8 20 9 43q-1 23 -9 43q-8 21 -22 35t-35 22q-20 8 -43 9q-23 -1 -43 -9q-21 -8 -35 -22t-22 -35q-8 -20 -9 -43zM32 570q0 37 14 70q14 34 38 58t58 38q33 14 70 14t70 -14q34 -14 58 -38t38 -58q14 -33 14 -70t-14 -70 q-14 -34 -38 -58t-58 -38q-33 -14 -70 -14t-70 14q-34 14 -58 38t-38 58q-14 33 -14 70zM103 570q1 -23 9 -43q8 -21 22 -35t35 -22q20 -8 43 -9q23 1 43 9q21 8 35 22t22 35q8 20 9 43q-1 23 -9 43q-8 21 -22 35t-35 22q-20 8 -43 9q-23 -1 -43 -9q-21 -8 -35 -22t-22 -35 q-8 -20 -9 -43zM479 180q0 37 14 70q15 34 39 58t57 38t70 14t70 -14t57 -38t39 -58q14 -33 14 -70t-14 -70q-15 -34 -39 -58t-57 -38t-70 -14t-70 14t-57 38t-39 58q-14 33 -14 70zM550 180q0 -23 8 -43q8 -21 24 -35q14 -14 34 -22t43 -9q23 1 43 9t34 22t24 35q8 20 8 43 t-8 43q-8 21 -24 35q-14 14 -34 22t-43 9q-23 -1 -43 -9t-34 -22t-24 -35q-8 -20 -8 -43z"/>
<glyph glyph-name="guilsinglleft" horiz-adv-x="224" unicode="‹" d="M142 464l55 -36l-102 -159l102 -158l-55 -36q-44 69 -69 108t-37 57l-16 24q-3 4 -3 6z"/>
<glyph glyph-name="guilsinglright" horiz-adv-x="252" unicode="›" d="M219 270q0 -2 -3 -6q-4 -4 -16 -24q-12 -18 -37 -57t-69 -108l-55 36l102 158l-102 159l55 36z"/>
<glyph glyph-name="fraction" horiz-adv-x="483" unicode="⁄" d="M16 15l405 744l46 -30l-401 -735z"/>
<glyph glyph-name="Euro" horiz-adv-x="584" unicode="€" d="M448 408h-274v-70h274v-66h-274v-34q0 -30 12.5 -58t33.5 -49.5t49.5 -34.5t60.5 -13q45 0 82 24.5t56 64.5l78 -45q-31 -60 -89 -97.5t-127 -37.5q-47 0 -91 18.5t-78 51t-54.5 77t-20.5 97.5v36h-56v66h56v70h-56v66h56v39q0 49 19.5 93t53 77.5t77.5 53t94 19.5 q32 0 64.5 -10t61.5 -28t53.5 -44.5t40.5 -59.5l-82 -38q-19 39 -56 64t-82 25q-33 0 -61.5 -13t-49.5 -34.5t-33 -49.5t-12 -57v-37h274v-66z"/>
<glyph glyph-name="trademark" horiz-adv-x="640" unicode="™" d="M280 376v375h65l100 -293q0 -1 0.5 0.5t4 9t9.5 25.5t17.5 50.5t28.5 83t42 124.5h65v-374h-45v303l-8 -22q-8 -22 -19 -56t-24.5 -73t-24.5 -73t-19 -57l-8 -23h-35l-104 305v-305h-45zM248 706h-94q-4 0 -4 -4v-326h-45v326q0 4 -3 4h-93v45h239v-45z"/>
<glyph glyph-name="minus" horiz-adv-x="533" unicode="−" d="M495 223h-457v66h457v-66z"/>
</font>
</defs>
</svg>
